<svg xmlns="http://www.w3.org/2000/svg" width="4.29" height="6.717" viewBox="0 0 4.29 6.717">
  <path id="Path_19511" data-name="Path 19511" d="M.346,5.709a.455.455,0,0,1-.257-.153.4.4,0,0,1,0-.491.946.946,0,0,1,.071-.078L2.233,2.9A.435.435,0,0,0,2.3,2.837.255.255,0,0,1,2.238,2.8L.142.7A.406.406,0,0,1,.025.265.4.4,0,0,1,.632.071.616.616,0,0,1,.7.13L3.113,2.552a.4.4,0,0,1,.077.5.58.58,0,0,1-.091.111Q1.928,4.343.756,5.518a.6.6,0,0,1-.3.19Z" transform="translate(0.524 0.508)" fill="none" stroke="#ff6634" stroke-miterlimit="10" stroke-width="1"/>
</svg>
