<svg xmlns="http://www.w3.org/2000/svg" width="62.509" height="63.354" viewBox="0 0 62.509 63.354">
  <path id="basket" d="M2.25,5.784A2.534,2.534,0,0,1,4.784,3.25h7.18a2.534,2.534,0,0,1,2.511,2.189l4.345,31.6H51.64L58.964,8.318H26.747a2.534,2.534,0,1,1,0-5.068H62.225a2.534,2.534,0,0,1,2.455,3.16L56.064,40.2a2.534,2.534,0,0,1-2.455,1.908H19.144v5.068h30.41a2.534,2.534,0,1,1,0,5.068H16.61a2.534,2.534,0,0,1-2.534-2.534V39.746L9.755,8.318H4.784A2.534,2.534,0,0,1,2.25,5.784ZM28.436,61.536a5.068,5.068,0,1,1-5.068-5.068A5.068,5.068,0,0,1,28.436,61.536Zm15.2,5.068a5.068,5.068,0,1,0-5.068-5.068A5.068,5.068,0,0,0,43.641,66.6Z" transform="translate(-2.25 -3.25)" fill="#fff" fill-rule="evenodd"/>
</svg>
