<svg xmlns="http://www.w3.org/2000/svg" width="19.5" height="21.75" viewBox="0 0 19.5 21.75">
  <g id="Component_4" data-name="Component 4" transform="translate(-0.25)">
    <circle id="Ellipse_60" data-name="Ellipse 60" cx="6.25" cy="6.25" r="6.25" transform="translate(3.75 0.75)" fill="none" stroke="#3e3e3e" stroke-width="1.5"/>
    <path id="Path_227" data-name="Path 227" d="M.25,21a.75.75,0,0,0,1.5,0Zm18,0a.75.75,0,0,0,1.5,0ZM1.75,21a8.253,8.253,0,0,1,5.368-7.733l-.524-1.406A9.754,9.754,0,0,0,.25,21Zm11.132-7.733A8.254,8.254,0,0,1,18.25,21h1.5a9.754,9.754,0,0,0-6.344-9.138Z" fill="#3e3e3e"/>
  </g>
</svg>
