<?xml version="1.0" encoding="UTF-8"?>
<svg id="SVGDoc" width="22" height="24" xmlns="http://www.w3.org/2000/svg" version="1.1" xmlns:xlink="http://www.w3.org/1999/xlink" xmlns:avocode="https://avocode.com/" viewBox="0 0 22 24"><defs></defs><desc>Generated with Avocode.</desc><g><g><title>download</title><g><title>Group 126</title><g><title>Group 125</title><g><title>Path 10</title><path d="M17.44899,11.84253c-0.13208,-0.29187 -0.42232,-0.47776 -0.74191,-0.47776h-3.26117v0v-10.59879c0,-0.45004 -0.36523,-0.81529 -0.81529,-0.81529h-3.26117c-0.45003,0 -0.81529,0.36525 -0.81529,0.81529v10.59879v0h-3.26115c-0.3196,0 -0.60983,0.18752 -0.74193,0.47776c-0.1337,0.29187 -0.08152,0.63267 0.12881,0.87399l5.70706,6.52233c0.15489,0.17773 0.3783,0.27883 0.61308,0.27883c0.23482,0 0.45821,-0.10273 0.61311,-0.27883l5.70703,-6.52233c0.21198,-0.2397 0.26089,-0.58212 0.12881,-0.87399z" fill="#707070" fill-opacity="1"></path></g></g></g><g><title>Group 128</title><g><title>Group 127</title><g><title>Path 11</title><path d="M19.06667,15.79773v0v4.89178v0h-16.13333v0v-4.89178v0h-2.93333v0v6.52234c0,0.90173 0.65707,1.63062 1.46667,1.63062h19.06667c0.81107,0 1.46667,-0.72888 1.46667,-1.63062v-6.52234v0z" fill="#707070" fill-opacity="1"></path></g></g></g></g></g></svg>