<?xml version="1.0" encoding="UTF-8"?>
<svg style="border-radius: 8px;" id="SVGDoc" width="18" height="18" xmlns="http://www.w3.org/2000/svg" version="1.1" xmlns:xlink="http://www.w3.org/1999/xlink" xmlns:avocode="https://avocode.com/" viewBox="0 0 18 18"><defs><clipPath id="ClipPath1042"><path d="M0,9.00012c0,-4.97056 4.02944,-9 9,-9c4.97056,0 9,4.02944 9,9c0,4.97056 -4.02944,9 -9,9c-4.97056,0 -9,-4.02944 -9,-9z" fill="#ffffff"></path></clipPath></defs><desc>Generated with Avocode.</desc><g><g><title>Component 35 – 1</title><g><title>Ellipse 14</title><path d="M0,9.00012c0,-4.97056 4.02944,-9 9,-9c4.97056,0 9,4.02944 9,9c0,4.97056 -4.02944,9 -9,9c-4.97056,0 -9,-4.02944 -9,-9z" fill-opacity="0" fill="#ffffff" stroke-dashoffset="0" stroke-linejoin="miter" stroke-linecap="butt" stroke-opacity="1" stroke="#ff6634" stroke-miterlimit="20" stroke-width="4" clip-path="url(&quot;#ClipPath1042&quot;)"></path></g><g><title>Ellipse 17</title><path d="M5,9.00012c0,-2.20914 1.79086,-4 4,-4c2.20914,0 4,1.79086 4,4c0,2.20914 -1.79086,4 -4,4c-2.20914,0 -4,-1.79086 -4,-4z" fill="#ff6634" fill-opacity="1"></path></g></g></g></svg> 