<svg width="20" height="19" viewBox="0 0 20 19" fill="none" xmlns="http://www.w3.org/2000/svg">
<path d="M19.051 16.2081L11.0621 1.37216C10.4958 0.320283 8.98741 0.320283 8.42069 1.37216L0.432255 16.2081C0.309307 16.4364 0.247667 16.6928 0.253351 16.9521C0.259035 17.2113 0.331848 17.4647 0.464683 17.6875C0.597519 17.9102 0.785838 18.0947 1.01126 18.223C1.23668 18.3512 1.4915 18.4188 1.75085 18.4192H17.7301C17.9896 18.4192 18.2447 18.3519 18.4705 18.2238C18.6962 18.0957 18.8849 17.9113 19.018 17.6885C19.1511 17.4657 19.2241 17.2121 19.2299 16.9526C19.2357 16.6932 19.174 16.4366 19.051 16.2081ZM9.74162 16.1223C9.5562 16.1223 9.37495 16.0673 9.22078 15.9643C9.06661 15.8613 8.94645 15.7149 8.87549 15.5436C8.80453 15.3723 8.78596 15.1838 8.82214 15.0019C8.85831 14.8201 8.9476 14.653 9.07871 14.5219C9.20982 14.3908 9.37687 14.3015 9.55873 14.2653C9.74058 14.2291 9.92908 14.2477 10.1004 14.3187C10.2717 14.3896 10.4181 14.5098 10.5211 14.664C10.6241 14.8181 10.6791 14.9994 10.6791 15.1848C10.6791 15.3079 10.6549 15.4298 10.6078 15.5436C10.5606 15.6573 10.4916 15.7607 10.4045 15.8477C10.3175 15.9348 10.2141 16.0038 10.1004 16.0509C9.98665 16.0981 9.86474 16.1223 9.74162 16.1223ZM10.7597 6.6934L10.4907 12.4122C10.4907 12.6111 10.4117 12.8018 10.271 12.9425C10.1304 13.0831 9.9396 13.1622 9.74069 13.1622C9.54177 13.1622 9.35101 13.0831 9.21036 12.9425C9.06971 12.8018 8.99069 12.6111 8.99069 12.4122L8.72163 6.69575C8.71558 6.55915 8.73709 6.42273 8.78489 6.29463C8.83269 6.16652 8.90579 6.04935 8.99984 5.9501C9.09389 5.85084 9.20695 5.77154 9.3323 5.71692C9.45765 5.6623 9.59271 5.63347 9.72944 5.63216H9.73928C9.87694 5.63208 10.0132 5.6599 10.1398 5.71394C10.2664 5.76797 10.3808 5.84709 10.4759 5.94653C10.5711 6.04597 10.6452 6.16367 10.6937 6.29252C10.7421 6.42136 10.764 6.55869 10.7579 6.69622L10.7597 6.6934Z" fill="white"/>
</svg>
