<svg xmlns="http://www.w3.org/2000/svg" width="32" height="32" viewBox="0 0 32 32">
  <defs>
    <style>
      .cls-1 {
        fill: #3e3e3e;
      }
    </style>
  </defs>
  <g id="instagram_1_" data-name="instagram (1)" transform="translate(-216.142 -216.142)">
    <path id="Path_170" data-name="Path 170" class="cls-1" d="M27.313,0H4.688A4.693,4.693,0,0,0,0,4.688V27.313A4.693,4.693,0,0,0,4.688,32H27.313A4.693,4.693,0,0,0,32,27.313V4.688A4.693,4.693,0,0,0,27.313,0ZM16.063,24.375A8.438,8.438,0,1,1,24.5,15.938,8.447,8.447,0,0,1,16.063,24.375Zm9.375-15A2.813,2.813,0,1,1,28.25,6.563,2.816,2.816,0,0,1,25.438,9.375Zm0,0" transform="translate(216.142 216.142)"/>
    <path id="Path_171" data-name="Path 171" class="cls-1" d="M392.942,90a.942.942,0,1,0,.942.942A.942.942,0,0,0,392.942,90Zm0,0" transform="translate(-151.365 131.765)"/>
    <path id="Path_172" data-name="Path 172" class="cls-1" d="M158.593,150a6.593,6.593,0,1,0,6.593,6.593A6.6,6.6,0,0,0,158.593,150Zm0,0" transform="translate(73.612 75.487)"/>
  </g>
</svg>
