<svg xmlns="http://www.w3.org/2000/svg" width="33.764" height="41.262" viewBox="0 0 33.764 41.262">
  <defs>
    <style>
      .cls-1 {
        fill: #3e3e3e;
      }
    </style>
  </defs>
  <g id="Group_21235" data-name="Group 21235" transform="translate(0)">
    <path id="Path_20476" data-name="Path 20476" class="cls-1" d="M396.857,623.98q-7.024,0-14.047,0a2.729,2.729,0,0,1-2.585-1.66,2.441,2.441,0,0,1-.235-1.1q0-4.523,0-9.045,0-3.932,0-7.864a2.745,2.745,0,0,1,.871-2.067,2.694,2.694,0,0,1,1.846-.768c.275-.008.551,0,.827,0,.21,0,.21,0,.21-.206,0-1.781,0-3.562,0-5.343a13.426,13.426,0,0,1,.5-3.747,12.408,12.408,0,0,1,2.451-4.585,14.093,14.093,0,0,1,3.753-3.207,12.233,12.233,0,0,1,4.27-1.505,13.988,13.988,0,0,1,2.8-.15,12.476,12.476,0,0,1,5.371,1.426,13.32,13.32,0,0,1,2.791,1.993,13.865,13.865,0,0,1,2.769,3.476,12.219,12.219,0,0,1,1.376,3.987,15.185,15.185,0,0,1,.181,2.457q0,2.586,0,5.173c0,.23,0,.225.225.232a11.036,11.036,0,0,1,1.243.054,2.762,2.762,0,0,1,2.235,2.241,3.981,3.981,0,0,1,.049.6q0,8.35,0,16.7a2.8,2.8,0,0,1-.566,1.792,2.743,2.743,0,0,1-2.255,1.115Zm0-22.5h7.313c.2,0,.2,0,.2-.2,0-1.781.008-3.562,0-5.343a8.866,8.866,0,0,0-.111-1.4,7.507,7.507,0,0,0-8.647-6.1,7.511,7.511,0,0,0-6.253,7.4q0,2.718,0,5.435c0,.2,0,.2.2.2Zm0,18.753h2.757a1.533,1.533,0,0,0,.274-.019.958.958,0,0,0,.686-1.25c-.668-2.161-1.31-4.33-1.966-6.495-.032-.107-.01-.154.083-.221a6.186,6.186,0,0,0,.867-.673,3.634,3.634,0,0,0,1.02-3.153,3.76,3.76,0,0,0-3.412-3.184,3.75,3.75,0,0,0-2.129,7.013c.079.046.127.083.093.193-.2.643-.392,1.289-.587,1.934q-.7,2.319-1.394,4.638a1.007,1.007,0,0,0-.041.425.935.935,0,0,0,.939.791C394.987,620.23,395.923,620.228,396.86,620.229Z" transform="translate(-379.988 -582.719)"/>
  </g>
</svg>
