<svg id="Group_150" data-name="Group 150" xmlns="http://www.w3.org/2000/svg" width="91" height="23.8" viewBox="0 0 91 23.8">
  <text id="TM" transform="translate(84 7)" fill="#fff" font-size="5" font-family="IBMPlexSans, IBM Plex Sans" letter-spacing="-0.025em"><tspan x="0" y="0">TM</tspan></text>
  <g id="Group_23" data-name="Group 23">
    <path id="Path_84" data-name="Path 84" d="M42.563,29.1a8.9,8.9,0,0,1-4.218-.962A6.778,6.778,0,0,1,35.532,25.4a8.238,8.238,0,0,1-.992-4.085,8.238,8.238,0,0,1,.992-4.085,6.778,6.778,0,0,1,2.812-2.738,9.73,9.73,0,0,1,8.437,0,6.778,6.778,0,0,1,2.812,2.738,8.238,8.238,0,0,1,.992,4.085,8.217,8.217,0,0,1-.992,4.1,6.8,6.8,0,0,1-2.812,2.724A8.9,8.9,0,0,1,42.563,29.1Zm0-3.4a3.428,3.428,0,0,0,2.768-1.214,4.753,4.753,0,0,0,1.023-3.168,4.753,4.753,0,0,0-1.023-3.168,3.729,3.729,0,0,0-5.506,0A4.753,4.753,0,0,0,38.8,21.311a4.753,4.753,0,0,0,1.023,3.168A3.4,3.4,0,0,0,42.563,25.693ZM61.715,13.7v3.789H60.058a3.1,3.1,0,0,0-2.605,1.066,4.608,4.608,0,0,0-.828,2.9v7.46H52.45V13.7h3.789l.385,2.279a4.731,4.731,0,0,1,1.687-1.7,5.4,5.4,0,0,1,2.694-.577ZM77.848,8.2V28.92H74.207l-.414-2.1A5.653,5.653,0,0,1,69.056,29.1a6.864,6.864,0,0,1-3.612-.962,6.6,6.6,0,0,1-2.5-2.738,8.961,8.961,0,0,1-.9-4.115,8.8,8.8,0,0,1,.9-4.07,6.594,6.594,0,0,1,2.516-2.724,6.946,6.946,0,0,1,3.626-.962A5.5,5.5,0,0,1,73.674,15.6V8.2Zm-7.815,17.5a3.339,3.339,0,0,0,2.694-1.2,4.741,4.741,0,0,0,1.006-3.153,4.844,4.844,0,0,0-1.006-3.2,3.32,3.32,0,0,0-2.694-1.214,3.362,3.362,0,0,0-2.709,1.214A4.753,4.753,0,0,0,66.3,21.312a4.753,4.753,0,0,0,1.023,3.168,3.362,3.362,0,0,0,2.711,1.213ZM82.407,7.369a2.356,2.356,0,0,1,1.717.666,2.243,2.243,0,0,1,.682,1.673,2.289,2.289,0,0,1-.682,1.687,2.328,2.328,0,0,1-1.717.682,2.377,2.377,0,0,1-1.732-.682,2.267,2.267,0,0,1-.7-1.687,2.218,2.218,0,0,1,.7-1.673,2.406,2.406,0,0,1,1.734-.667ZM80.3,13.7h4.174V28.921H80.3Zm6.039,7.637a8.481,8.481,0,0,1,.962-4.13A6.751,6.751,0,0,1,90,14.489a8.125,8.125,0,0,1,4.011-.962,8.8,8.8,0,0,1,4.07.9,6.73,6.73,0,0,1,2.753,2.546,7.53,7.53,0,0,1,1.023,3.863,7.634,7.634,0,0,1-.118,1.421H90.7v.118a4.142,4.142,0,0,0,1.066,2.605,3.339,3.339,0,0,0,2.516.947,3.813,3.813,0,0,0,2.116-.548,2.588,2.588,0,0,0,1.11-1.614h4.115a5.985,5.985,0,0,1-1.154,2.724A6.266,6.266,0,0,1,98.039,28.4a8.19,8.19,0,0,1-3.463.7,9.532,9.532,0,0,1-4.4-.947,6.668,6.668,0,0,1-2.842-2.709,8.216,8.216,0,0,1-.991-4.1Zm11.338-1.806a3.256,3.256,0,0,0-1.14-2.144,3.619,3.619,0,0,0-2.353-.755,3.442,3.442,0,0,0-2.294.785,3.209,3.209,0,0,0-1.11,2.116Zm4.885,7.1a2.4,2.4,0,0,1,.711-1.791,2.656,2.656,0,0,1,3.6.014,2.384,2.384,0,0,1,.725,1.776,2.336,2.336,0,0,1-.728,1.762,2.673,2.673,0,0,1-3.6,0,2.36,2.36,0,0,1-.711-1.762Z" transform="translate(-19.731 -5.302)" fill="#fff"/>
    <path id="Path_6" data-name="Path 6" d="M56.09,4.981a.18.18,0,0,0-.064-.291C54.768,4.154,48.3.979,46.088,5.6c-1.349,2.81,1.8,4.868,4.484,2.107C52.612,5.617,55.269,5.89,56.09,4.981Z" transform="translate(-25.486 -3.129)" fill="#ff6634"/>
    <g id="Group_51" data-name="Group 51" transform="translate(0 2.702)">
      <path id="Path_157" data-name="Path 157" d="M18.9,14.432l-5.862,5.611,6.557,9.547H14.4l-4.29-6.727L8.353,24.449V29.59h-4.2V8.674h4.2V19.867l5.5-5.434Z" transform="translate(-4.153 -8.674)" fill="#fff"/>
    </g>
  </g>
</svg>
