<?xml version="1.0" encoding="UTF-8"?>
<svg id="SVGDoc" width="88" height="24" xmlns="http://www.w3.org/2000/svg" version="1.1" xmlns:xlink="http://www.w3.org/1999/xlink" xmlns:avocode="https://avocode.com/" viewBox="0 0 88 24"><defs></defs><desc>Generated with Avocode.</desc><g><g><title>Group 23</title><g><title>Path 84</title><path d="M82.83538,21.33958c-0.02387,-0.67007 0.23346,-1.31969 0.71055,-1.79094c0.48341,-0.4693 1.13742,-0.72076 1.81042,-0.69688c0.66861,-0.01657 1.3153,0.23977 1.79094,0.71053c0.48002,0.46442 0.74269,1.10868 0.72516,1.77632c0.01898,0.66375 -0.24563,1.30458 -0.7276,1.7617c-0.47904,0.46199 -1.12329,0.71247 -1.7885,0.69542c-0.67202,0.02339 -1.32504,-0.22757 -1.80801,-0.69542c-0.47318,-0.46199 -0.73098,-1.10088 -0.71052,-1.7617zM77.95087,14.2348c-0.08917,-0.8348 -0.49756,-1.60332 -1.13985,-2.14426c-0.67155,-0.51998 -1.5044,-0.78704 -2.35332,-0.75488c-0.8348,-0.02534 -1.65012,0.25341 -2.29436,0.7846c-0.62864,0.53606 -1.02631,1.29435 -1.11012,2.11647zM66.61316,16.04035c-0.03413,-1.43567 0.29676,-2.85673 0.96198,-4.12963c0.61647,-1.14913 1.55165,-2.09503 2.69395,-2.72369c1.23198,-0.66033 2.61355,-0.99172 4.01122,-0.96199c1.40935,-0.02924 2.80555,0.28022 4.07018,0.90302c1.14035,0.57066 2.09502,1.4537 2.75292,2.54581c0.68275,1.17203 1.03655,2.50682 1.02341,3.86307c0.00485,0.47612 -0.03461,0.95224 -0.11844,1.42105h-11.04144v0.11842c0.04045,0.96637 0.41717,1.88791 1.06579,2.60527c0.66912,0.65449 1.58187,0.99805 2.51608,0.94737c0.74368,0.02778 1.47955,-0.16228 2.11649,-0.54776c0.56725,-0.37183 0.96589,-0.95127 1.11014,-1.61355h4.11501c-0.15105,0.99025 -0.54774,1.9269 -1.15448,2.72369c-0.63694,0.82895 -1.47173,1.48538 -2.42738,1.90936c-1.09016,0.481 -2.27194,0.71881 -3.46346,0.69591c-1.51998,0.03948 -3.02729,-0.28557 -4.39619,-0.94737c-1.19787,-0.59746 -2.18813,-1.54094 -2.84212,-2.70858c-0.68177,-1.25731 -1.02339,-2.67105 -0.99123,-4.10088zM60.57416,8.40291h4.17398v15.21591h-4.17398zM62.67602,2.06762c0.63888,-0.01998 1.25877,0.22027 1.71685,0.66618c0.45177,0.43714 0.69932,1.04386 0.68227,1.67252c0.0156,0.63256 -0.23149,1.24318 -0.68227,1.68714c-0.4537,0.45468 -1.07504,0.70127 -1.71685,0.68226c-0.64621,0.01754 -1.27144,-0.22904 -1.73198,-0.68226c-0.4581,-0.44006 -0.71053,-1.05215 -0.69592,-1.68714c-0.01656,-0.63109 0.23635,-1.23928 0.69592,-1.67252c0.46539,-0.44542 1.09016,-0.68567 1.7344,-0.66667zM52.99617,19.1924c0.70319,-0.89572 1.06042,-2.01511 1.00632,-3.15254c0.05556,-1.15156 -0.30116,-2.28509 -1.00632,-3.19689c-0.65839,-0.80409 -1.65546,-1.25293 -2.69398,-1.21393c-1.04238,-0.03753 -2.04287,0.4113 -2.70857,1.21393c-0.71199,0.89815 -1.07504,2.02291 -1.02339,3.16765c-0.05165,1.14474 0.3114,2.26949 1.02339,3.16764c0.66597,0.80286 1.66701,1.25069 2.70953,1.21301c1.03524,0.03965 2.02998,-0.4033 2.69302,-1.19887zM58.11752,2.89608v20.72176h-3.64133l-0.41422,-2.10186c-1.1082,1.4922 -2.87868,2.34406 -4.73637,2.27924c-1.26951,0.0195 -2.51998,-0.31335 -3.6116,-0.96199c-1.07848,-0.65497 -1.94641,-1.60527 -2.50148,-2.73831c-0.62378,-1.28022 -0.93324,-2.69104 -0.90302,-4.11501c-0.02924,-1.40936 0.28022,-2.80556 0.90302,-4.07018c0.56092,-1.13012 1.43421,-2.07505 2.51609,-2.72369c1.09746,-0.64717 2.35235,-0.98002 3.62622,-0.96199c1.77437,-0.09113 3.48345,0.6808 4.58821,2.07213v-7.40011zM41.98397,8.40291v3.78899h-1.65691c-1.18422,0 -2.05264,0.35526 -2.60527,1.06579c-0.59406,0.84649 -0.88548,1.86842 -0.82846,2.90108v7.46005h-4.17398v-15.21689h3.78899l0.38499,2.27924c0.40692,-0.70273 0.98782,-1.28898 1.68714,-1.70224c0.83284,-0.42203 1.7612,-0.62086 2.69396,-0.57749zM22.83191,20.39123c1.06092,0.04581 2.08334,-0.40254 2.76803,-1.21394c0.71199,-0.89815 1.07505,-2.02291 1.02339,-3.16765c0.05166,-1.14474 -0.3114,-2.2695 -1.02339,-3.16764c-0.6847,-0.81141 -1.70712,-1.25974 -2.76803,-1.21394c-1.05166,-0.04142 -2.06287,0.40692 -2.73831,1.21394c-0.71199,0.89815 -1.07505,2.02291 -1.02339,3.16764c-0.05165,1.14474 0.31141,2.2695 1.02339,3.16765c0.67544,0.80702 1.68665,1.25536 2.73831,1.21394zM22.83191,23.79572c-1.46394,0.03119 -2.91277,-0.29922 -4.21833,-0.96199c-1.18714,-0.6155 -2.1657,-1.56823 -2.8124,-2.73831c-0.67836,-1.25292 -1.01998,-2.66082 -0.99171,-4.08529c-0.02827,-1.42447 0.31335,-2.83236 0.99171,-4.08529c0.64669,-1.17008 1.62526,-2.12281 2.8124,-2.7383c1.30555,-0.66277 2.75438,-0.99318 4.21833,-0.96199c1.46393,-0.03119 2.91277,0.29922 4.21833,0.96199c1.18713,0.6155 2.16569,1.56822 2.81238,2.7383c0.67835,1.25293 1.01999,2.66082 0.99171,4.08529c0.03167,1.42982 -0.30994,2.84308 -0.99171,4.09991c-0.6501,1.16375 -1.62818,2.11111 -2.81238,2.72369c-1.30556,0.66277 -2.7544,0.99318 -4.21833,0.96199z" fill="#3e3e3e" fill-opacity="1"></path></g><g><title>Path 6</title><path d="M30.60385,1.85271c0.06822,-0.07164 0.06578,-0.1847 -0.00537,-0.25292c-0.01656,-0.01657 -0.03703,-0.02924 -0.05847,-0.03801c-1.25878,-0.53606 -7.72175,-3.71151 -9.93813,0.91131c-1.34942,2.80994 1.79678,4.86794 4.48392,2.10673c2.03996,-2.09162 4.69688,-1.81872 5.51804,-2.7271z" fill="#ff6634" fill-opacity="1"></path></g><g><title>Group 51</title><g><title>Path 157</title><path d="M14.74515,8.4609v0l-5.8621,5.61063v0l6.55654,9.54729v0h-5.19689v0l-4.28997,-6.7271v0l-1.75293,1.58626v0v5.14085v0h-4.19981v0v-20.91621v0h4.19981v0v11.19251v0l5.49952,-5.43422v0z" fill="#ff6634" fill-opacity="1"></path></g></g></g></g></svg>