<svg xmlns="http://www.w3.org/2000/svg" width="88" height="24" viewBox="0 0 88 24"><g><g><g><path fill="#fff" d="M82.835 21.34c-.023-.67.234-1.32.71-1.791a2.473 2.473 0 0 1 1.811-.697 2.46 2.46 0 0 1 1.791.71c.48.465.743 1.109.725 1.777a2.336 2.336 0 0 1-.727 1.761 2.485 2.485 0 0 1-1.789.696 2.475 2.475 0 0 1-1.808-.696 2.36 2.36 0 0 1-.71-1.761zm-4.884-7.105a3.256 3.256 0 0 0-1.14-2.144 3.62 3.62 0 0 0-2.353-.755 3.442 3.442 0 0 0-2.295.784 3.21 3.21 0 0 0-1.11 2.117zM66.613 16.04a8.481 8.481 0 0 1 .962-4.13 6.75 6.75 0 0 1 2.694-2.723 8.125 8.125 0 0 1 4.011-.962 8.8 8.8 0 0 1 4.07.903 6.73 6.73 0 0 1 2.753 2.546 7.53 7.53 0 0 1 1.024 3.863c.005.476-.035.952-.119 1.421H70.967v.118c.04.967.417 1.888 1.066 2.606a3.34 3.34 0 0 0 2.516.947 3.813 3.813 0 0 0 2.116-.548 2.588 2.588 0 0 0 1.11-1.613h4.115a5.985 5.985 0 0 1-1.154 2.723 6.266 6.266 0 0 1-2.427 1.91 8.19 8.19 0 0 1-3.464.696 9.532 9.532 0 0 1-4.396-.948 6.668 6.668 0 0 1-2.842-2.708 8.216 8.216 0 0 1-.991-4.101zm-6.039-7.637h4.174v15.216h-4.174zm2.102-6.335c.639-.02 1.259.22 1.717.666.452.437.7 1.044.682 1.672a2.289 2.289 0 0 1-.682 1.687 2.328 2.328 0 0 1-1.717.683 2.377 2.377 0 0 1-1.732-.683 2.267 2.267 0 0 1-.696-1.687 2.218 2.218 0 0 1 .696-1.672 2.406 2.406 0 0 1 1.734-.667zm-9.68 17.124a4.741 4.741 0 0 0 1.006-3.152 4.844 4.844 0 0 0-1.006-3.197 3.32 3.32 0 0 0-2.694-1.214 3.362 3.362 0 0 0-2.708 1.214 4.753 4.753 0 0 0-1.024 3.168 4.753 4.753 0 0 0 1.024 3.167 3.362 3.362 0 0 0 2.71 1.213 3.34 3.34 0 0 0 2.692-1.199zm5.122-16.296v20.722h-3.642l-.414-2.102a5.653 5.653 0 0 1-4.736 2.28 6.864 6.864 0 0 1-3.612-.963 6.601 6.601 0 0 1-2.501-2.738 8.96 8.96 0 0 1-.904-4.115 8.8 8.8 0 0 1 .904-4.07 6.594 6.594 0 0 1 2.516-2.724 6.946 6.946 0 0 1 3.626-.962 5.499 5.499 0 0 1 4.588 2.072v-7.4zM41.984 8.403v3.789h-1.657c-1.184 0-2.053.355-2.605 1.066a4.608 4.608 0 0 0-.829 2.9v7.46H32.72V8.403h3.79l.384 2.28a4.73 4.73 0 0 1 1.687-1.703 5.405 5.405 0 0 1 2.694-.578zM22.832 20.39a3.428 3.428 0 0 0 2.768-1.214 4.753 4.753 0 0 0 1.023-3.167 4.753 4.753 0 0 0-1.023-3.168 3.428 3.428 0 0 0-2.768-1.214 3.396 3.396 0 0 0-2.738 1.214 4.753 4.753 0 0 0-1.024 3.168 4.754 4.754 0 0 0 1.024 3.167 3.396 3.396 0 0 0 2.738 1.214zm0 3.405a8.9 8.9 0 0 1-4.218-.962 6.778 6.778 0 0 1-2.813-2.739 8.238 8.238 0 0 1-.992-4.085 8.238 8.238 0 0 1 .992-4.085 6.778 6.778 0 0 1 2.813-2.738 8.9 8.9 0 0 1 4.218-.962 8.9 8.9 0 0 1 4.218.962 6.778 6.778 0 0 1 2.813 2.738 8.238 8.238 0 0 1 .991 4.085 8.217 8.217 0 0 1-.991 4.1 6.801 6.801 0 0 1-2.813 2.724 8.9 8.9 0 0 1-4.218.962z"/></g><g><path fill="#ff6634" d="M30.604 1.853a.18.18 0 0 0-.064-.291c-1.259-.536-7.722-3.712-9.938.911-1.35 2.81 1.797 4.868 4.484 2.107 2.04-2.092 4.697-1.819 5.518-2.727z"/></g><g><g><path fill="#fff" d="M14.745 8.46l-5.862 5.612 6.557 9.547h-5.197l-4.29-6.727L4.2 18.478v5.14H0V2.704h4.2v11.192l5.5-5.434z"/></g></g></g></g></svg>