<svg id="Group_150" data-name="Group 150" xmlns="http://www.w3.org/2000/svg" width="137.134" height="37.141" viewBox="0 0 137.134 37.141">
  <text id="TM" transform="translate(131 6.015)" fill="#fff" font-size="4" font-family="IBMPlexSans, IBM Plex Sans" letter-spacing="-0.025em"><tspan x="0" y="0">TM</tspan></text>
  <g id="Group_23" data-name="Group 23" transform="translate(0)">
    <path id="Path_84" data-name="Path 84" d="M47.061,41.279a13.889,13.889,0,0,1-6.583-1.5A10.577,10.577,0,0,1,36.089,35.5a12.856,12.856,0,0,1-1.548-6.375,12.856,12.856,0,0,1,1.548-6.375,10.577,10.577,0,0,1,4.389-4.273,13.889,13.889,0,0,1,6.583-1.5,13.889,13.889,0,0,1,6.583,1.5,10.577,10.577,0,0,1,4.389,4.273,12.856,12.856,0,0,1,1.548,6.375,12.823,12.823,0,0,1-1.548,6.4,10.614,10.614,0,0,1-4.389,4.251A13.889,13.889,0,0,1,47.061,41.279Zm0-5.313a5.35,5.35,0,0,0,4.32-1.894,7.418,7.418,0,0,0,1.6-4.943,7.418,7.418,0,0,0-1.6-4.943,5.819,5.819,0,0,0-8.593,0,7.418,7.418,0,0,0-1.6,4.943,7.418,7.418,0,0,0,1.6,4.943A5.3,5.3,0,0,0,47.061,35.966ZM76.949,17.257V23.17H74.364A4.83,4.83,0,0,0,70.3,24.833a7.191,7.191,0,0,0-1.293,4.527V41H62.491V17.256H68.4l.6,3.557a7.383,7.383,0,0,1,2.633-2.657,8.435,8.435,0,0,1,4.2-.9Zm25.178-8.594V41H96.445l-.646-3.28a8.823,8.823,0,0,1-7.392,3.557,10.712,10.712,0,0,1-5.636-1.5,10.3,10.3,0,0,1-3.9-4.273,13.984,13.984,0,0,1-1.409-6.422,13.733,13.733,0,0,1,1.409-6.352,10.29,10.29,0,0,1,3.927-4.251,10.84,10.84,0,0,1,5.659-1.5,8.581,8.581,0,0,1,7.16,3.234V8.663Zm-12.2,27.3a5.211,5.211,0,0,0,4.2-1.871,7.4,7.4,0,0,0,1.57-4.92,7.559,7.559,0,0,0-1.57-4.989,5.182,5.182,0,0,0-4.2-1.894A5.247,5.247,0,0,0,85.7,24.186a7.418,7.418,0,0,0-1.6,4.943,7.418,7.418,0,0,0,1.6,4.943,5.247,5.247,0,0,0,4.23,1.893Zm19.31-28.6a3.677,3.677,0,0,1,2.679,1.04,3.5,3.5,0,0,1,1.065,2.61,3.572,3.572,0,0,1-1.065,2.633,3.633,3.633,0,0,1-2.679,1.065,3.71,3.71,0,0,1-2.7-1.065,3.538,3.538,0,0,1-1.086-2.633,3.462,3.462,0,0,1,1.086-2.61,3.754,3.754,0,0,1,2.707-1.04Zm-3.28,9.887h6.514V41h-6.514Zm9.424,11.919a13.235,13.235,0,0,1,1.5-6.445,10.535,10.535,0,0,1,4.2-4.251,12.68,12.68,0,0,1,6.26-1.5,13.733,13.733,0,0,1,6.352,1.409,10.5,10.5,0,0,1,4.3,3.973,11.752,11.752,0,0,1,1.6,6.029,11.912,11.912,0,0,1-.185,2.218H122.18v.185a6.464,6.464,0,0,0,1.663,4.066,5.212,5.212,0,0,0,3.927,1.478,5.95,5.95,0,0,0,3.3-.855,4.039,4.039,0,0,0,1.732-2.518h6.422a9.341,9.341,0,0,1-1.8,4.251,9.779,9.779,0,0,1-3.788,2.98,12.781,12.781,0,0,1-5.405,1.086,14.875,14.875,0,0,1-6.861-1.478,10.406,10.406,0,0,1-4.435-4.227,12.821,12.821,0,0,1-1.547-6.4Zm17.694-2.818a5.081,5.081,0,0,0-1.779-3.346,5.649,5.649,0,0,0-3.673-1.178,5.372,5.372,0,0,0-3.581,1.224,5.009,5.009,0,0,0-1.732,3.3ZM140.7,37.446a3.741,3.741,0,0,1,1.109-2.795,4.144,4.144,0,0,1,5.62.021,3.72,3.72,0,0,1,1.132,2.772,3.646,3.646,0,0,1-1.135,2.749,4.171,4.171,0,0,1-5.613,0,3.683,3.683,0,0,1-1.109-2.749Z" transform="translate(-11.43 -4.144)" fill="#3e3e3e"/>
    <path id="Path_6" data-name="Path 6" d="M61.878,6.02a.281.281,0,0,0-.1-.454c-1.964-.837-12.05-5.792-15.509,1.422-2.106,4.385,2.8,7.6,7,3.288C56.45,7.011,60.6,7.437,61.878,6.02Z" transform="translate(-14.118 -3.129)" fill="#ff6634"/>
    <g id="Group_51" data-name="Group 51" transform="translate(0 4.217)">
      <path id="Path_157" data-name="Path 157" d="M27.164,17.66l-9.148,8.756,10.232,14.9h-8.11l-6.695-10.5-2.736,2.475v8.023H4.153V8.674h6.554V26.141L19.29,17.66Z" transform="translate(-4.153 -8.674)" fill="#3e3e3e"/>
    </g>
  </g>
</svg>
