<svg xmlns="http://www.w3.org/2000/svg" width="247.999" height="32" viewBox="0 0 247.999 32">
  <defs>
    <style>
      .cls-1, .cls-3 {
        fill: #3e3e3e;
      }

      .cls-2 {
        fill: #f63;
      }

      .cls-3 {
        font-size: 12px;
        font-family: SegoeUI, Segoe UI;
      }
    </style>
  </defs>
  <g id="Group_21272" data-name="Group 21272" transform="translate(-26.001 -705)">
    <g id="Group_21267" data-name="Group 21267" transform="translate(4.656 657.178)">
      <g id="Group_20060" data-name="Group 20060" transform="translate(38.775 51.574)">
        <path id="Path_19538" data-name="Path 19538" class="cls-1" d="M-11.013-29.828a10.479,10.479,0,0,1-4.966-1.132,7.973,7.973,0,0,1-3.311-3.227A9.7,9.7,0,0,1-20.457-39,9.7,9.7,0,0,1-19.289-43.8a7.98,7.98,0,0,1,3.311-3.223,10.473,10.473,0,0,1,4.966-1.131,10.473,10.473,0,0,1,4.966,1.131A7.98,7.98,0,0,1-2.736-43.8,9.7,9.7,0,0,1-1.568-39a9.673,9.673,0,0,1-1.168,4.828,8,8,0,0,1-3.311,3.207,10.474,10.474,0,0,1-4.966,1.134m0-4.008a4.038,4.038,0,0,0,3.259-1.429,5.6,5.6,0,0,0,1.207-3.729,5.6,5.6,0,0,0-1.207-3.729,4.39,4.39,0,0,0-6.2-.281q-.147.134-.281.281a5.6,5.6,0,0,0-1.207,3.729,5.6,5.6,0,0,0,1.207,3.729,4,4,0,0,0,3.223,1.429M11.532-47.948v4.46H9.583a3.644,3.644,0,0,0-3.065,1.254,5.422,5.422,0,0,0-.976,3.415v8.78H.627v-17.91H5.084l.452,2.683a5.564,5.564,0,0,1,1.986-2,6.359,6.359,0,0,1,3.168-.679Zm18.993-6.483v24.393H26.239l-.487-2.474a6.656,6.656,0,0,1-5.576,2.684,8.081,8.081,0,0,1-4.251-1.132,7.771,7.771,0,0,1-2.942-3.223,10.546,10.546,0,0,1-1.062-4.844,10.355,10.355,0,0,1,1.062-4.791,7.761,7.761,0,0,1,2.962-3.207,8.172,8.172,0,0,1,4.269-1.132,6.474,6.474,0,0,1,5.4,2.439v-8.712Zm-9.2,20.593a3.93,3.93,0,0,0,3.168-1.411,5.583,5.583,0,0,0,1.184-3.711,5.7,5.7,0,0,0-1.184-3.763,3.91,3.91,0,0,0-3.168-1.429,3.959,3.959,0,0,0-3.189,1.431,5.6,5.6,0,0,0-1.207,3.729,5.6,5.6,0,0,0,1.207,3.729,3.958,3.958,0,0,0,3.191,1.428ZM35.889-55.412a2.773,2.773,0,0,1,2.021.784,2.641,2.641,0,0,1,.8,1.969,2.7,2.7,0,0,1-.8,1.986,2.744,2.744,0,0,1-2.021.8,2.8,2.8,0,0,1-2.037-.8,2.67,2.67,0,0,1-.82-1.986,2.611,2.611,0,0,1,.82-1.969,2.831,2.831,0,0,1,2.042-.784Zm-2.474,7.458h4.914v17.915H33.414Zm7.109,8.991a9.983,9.983,0,0,1,1.131-4.861,7.945,7.945,0,0,1,3.168-3.207,9.567,9.567,0,0,1,4.722-1.132A10.363,10.363,0,0,1,54.336-47.1a7.923,7.923,0,0,1,3.244,3,8.867,8.867,0,0,1,1.207,4.548,9.024,9.024,0,0,1-.139,1.673h-13v.14a4.88,4.88,0,0,0,1.254,3.067,3.931,3.931,0,0,0,2.962,1.115,4.486,4.486,0,0,0,2.489-.645,3.045,3.045,0,0,0,1.307-1.9h4.844A7.049,7.049,0,0,1,57.151-32.9a7.379,7.379,0,0,1-2.857,2.248,9.641,9.641,0,0,1-4.077.819,11.221,11.221,0,0,1-5.175-1.115A7.851,7.851,0,0,1,41.7-34.134a9.673,9.673,0,0,1-1.167-4.828ZM53.87-41.089a3.833,3.833,0,0,0-1.342-2.524,4.26,4.26,0,0,0-2.77-.889,4.054,4.054,0,0,0-2.7.923,3.777,3.777,0,0,0-1.306,2.489Zm5.752,8.37a2.823,2.823,0,0,1,.837-2.109,3.126,3.126,0,0,1,4.239.016,2.807,2.807,0,0,1,.854,2.091,2.752,2.752,0,0,1-.856,2.074,3.147,3.147,0,0,1-4.234,0,2.778,2.778,0,0,1-.837-2.074Z" transform="translate(20.459 55.413)"/>
      </g>
      <g id="Group_20061" data-name="Group 20061" transform="translate(45.217 49.146)">
        <path id="Path_19539" data-name="Path 19539" class="cls-2" d="M-14.17-2.542a.212.212,0,0,0-.008-.3.218.218,0,0,0-.067-.043c-1.482-.631-9.09-4.369-11.7,1.073-1.589,3.308,2.112,5.733,5.28,2.48,2.4-2.463,5.53-2.141,6.494-3.21" transform="translate(26.325 4.723)"/>
      </g>
      <g id="Group_20063" data-name="Group 20063" transform="translate(21.345 52.328)">
        <path id="Path_19541" data-name="Path 19541" class="cls-1" d="M0,0V24.621H4.944V18.569L7.008,16.7l5.05,7.921h6.118l-7.719-11.24,6.9-6.6h-5.94l-6.475,6.4V0Z"/>
      </g>
    </g>
    <text id="NEW_ECONOMY_HOSPITALITY_EDUCATION" data-name="NEW ECONOMY
HOSPITALITY EDUCATION" class="cls-3" transform="translate(137 718)"><tspan x="0" y="0">NEW ECONOMY</tspan><tspan x="0" y="16">HOSPITALITY EDUCATION</tspan></text>
  </g>
</svg>
