<svg xmlns="http://www.w3.org/2000/svg" width="108" height="24" viewBox="0 0 108 24">
  <defs>
    <style>
      .cls-1 {
        fill: #3e3e3e;
      }

      .cls-2 {
        fill: #fff;
      }
    </style>
  </defs>
  <g id="Group_20640" data-name="Group 20640" transform="translate(-0.154 0.046)">
    <rect id="Rectangle_2576" data-name="Rectangle 2576" class="cls-1" width="108" height="24" rx="4" transform="translate(0.154 -0.046)"/>
    <path id="Path_20143" data-name="Path 20143" class="cls-2" d="M15.853,11.24H12.77v7.716h1.377V15.973h1.707c1.721,0,2.8-.832,2.8-2.366S17.574,11.24,15.853,11.24Zm-.072,3.585H14.147V12.459H15.8c.99,0,1.513.423,1.513,1.183S16.771,14.79,15.8,14.79Z" transform="translate(-3.023 -3.549)"/>
    <path id="Path_20144" data-name="Path 20144" class="cls-2" d="M24.021,14a2.7,2.7,0,0,0-2.734,2.672c0,.087,0,.174.009.261a2.732,2.732,0,1,0,5.443,0A2.7,2.7,0,0,0,24.29,14.01C24.2,14,24.11,14,24.021,14Zm0,4.783c-.875,0-1.434-.717-1.434-1.85s.545-1.85,1.434-1.85,1.434.717,1.434,1.85-.566,1.843-1.434,1.843Z" transform="translate(-5.432 -4.33)"/>
    <path id="Path_20145" data-name="Path 20145" class="cls-2" d="M34.641,17.873,33.63,14.13H32.569l-1,3.743L30.547,14.13H29.22l1.7,5.651h1.119l1.033-3.7,1.033,3.7h1.119l1.7-5.651H35.645Z" transform="translate(-7.677 -4.367)"/>
    <path id="Path_20146" data-name="Path 20146" class="cls-2" d="M42.936,14a2.746,2.746,0,0,0-2.695,2.8c0,.046,0,.091.006.136a2.717,2.717,0,0,0,2.494,2.924,2.746,2.746,0,0,0,2.7-1.555l-1.068-.445a1.277,1.277,0,0,1-1.312.9A1.52,1.52,0,0,1,41.5,17.278c0-.024,0-.048,0-.072H45.46v-.43A2.482,2.482,0,0,0,42.936,14Zm-1.384,2.244a1.376,1.376,0,0,1,1.384-1.169,1.119,1.119,0,0,1,1.209,1.02,1.161,1.161,0,0,1,0,.141Z" transform="translate(-10.794 -4.33)"/>
    <path id="Path_20147" data-name="Path 20147" class="cls-2" d="M50.181,14.951v-.839H48.89v5.644h1.291V16.794a1.355,1.355,0,0,1,1.271-1.434,1.233,1.233,0,0,1,.163,0,3.258,3.258,0,0,1,.473,0V14.069h-.366A1.642,1.642,0,0,0,50.181,14.951Z" transform="translate(-13.241 -4.349)"/>
    <path id="Path_20148" data-name="Path 20148" class="cls-2" d="M56.416,14a2.746,2.746,0,0,0-2.695,2.8c0,.046,0,.091.006.136a2.717,2.717,0,0,0,2.494,2.924A2.7,2.7,0,0,0,58.89,18.3l-1.1-.423a1.277,1.277,0,0,1-1.312.9,1.521,1.521,0,0,1-1.507-1.534v-.022H58.94V16.8A2.512,2.512,0,0,0,56.416,14Zm-1.384,2.244a1.377,1.377,0,0,1,1.377-1.162,1.119,1.119,0,0,1,1.209,1.02,1.163,1.163,0,0,1,0,.141Z" transform="translate(-14.607 -4.33)"/>
    <path id="Path_20149" data-name="Path 20149" class="cls-2" d="M65.939,13.936a2.042,2.042,0,0,0-1.621-.717c-1.585,0-2.488,1.327-2.488,2.933s.9,2.933,2.488,2.933a2.023,2.023,0,0,0,1.621-.717v.588H67.23V11.24H65.939Zm0,2.4A1.436,1.436,0,0,1,64.5,17.973c-.939,0-1.434-.717-1.434-1.807s.5-1.807,1.434-1.807A1.457,1.457,0,0,1,65.939,16Z" transform="translate(-16.902 -3.549)"/>
    <path id="Path_20150" data-name="Path 20150" class="cls-2" d="M78.147,13.219a2.064,2.064,0,0,0-1.656.717v-2.7H75.2v7.716h1.291v-.6a2.052,2.052,0,0,0,1.628.717c1.578,0,2.481-1.334,2.481-2.933S79.725,13.219,78.147,13.219Zm-.222,4.733a1.432,1.432,0,0,1-1.434-1.635V15.98c0-1.061.6-1.642,1.434-1.642.932,0,1.434.717,1.434,1.807S78.821,17.952,77.925,17.952Z" transform="translate(-20.685 -3.549)"/>
    <path id="Path_20151" data-name="Path 20151" class="cls-2" d="M85.846,18.1,84.462,14.13H83.1l2.08,5.443-.215.531a.717.717,0,0,1-.817.567,2.872,2.872,0,0,1-.43,0v1.083a3.283,3.283,0,0,0,.523.036,1.915,1.915,0,0,0,1.994-1.434l2.323-6.181H87.2Z" transform="translate(-22.92 -4.367)"/>
    <path id="Path_20152" data-name="Path 20152" class="cls-2" d="M123.682,12.43a2.149,2.149,0,0,0-1.527.624l-.1-.495H120.34v9.265l1.95-.423V19.156a2.151,2.151,0,0,0,1.384.5c1.391,0,2.668-1.14,2.668-3.664C126.342,13.685,125.051,12.43,123.682,12.43Zm-.466,5.471a1.154,1.154,0,0,1-.918-.373V14.581a1.176,1.176,0,0,1,.932-.394c.717,0,1.2.81,1.2,1.85S123.94,17.9,123.216,17.9Z" transform="translate(-33.456 -3.886)"/>
    <path id="Path_20153" data-name="Path 20153" class="cls-2" d="M132.539,12.43c-1.879,0-3.019,1.621-3.019,3.664,0,2.417,1.348,3.643,3.27,3.643a4.386,4.386,0,0,0,2.151-.523V17.6a4.152,4.152,0,0,1-1.936.445c-.774,0-1.434-.28-1.535-1.219h3.858v-.717C135.393,14.051,134.418,12.43,132.539,12.43Zm-1.054,2.919c0-.9.552-1.284,1.04-1.284s1,.38,1,1.284Z" transform="translate(-36.053 -3.886)"/>
    <path id="Path_20154" data-name="Path 20154" class="cls-2" d="M112.3,13.093l-.122-.588H110.51v6.963h1.922V14.749a1.341,1.341,0,0,1,1.47-.416V12.5A1.29,1.29,0,0,0,112.3,13.093Z" transform="translate(-30.675 -3.882)"/>
    <path id="Path_20155" data-name="Path 20155" class="cls-2" d="M98.682,14.6c0-.316.258-.437.667-.437a4.224,4.224,0,0,1,1.936.516V12.8a5.015,5.015,0,0,0-1.936-.366c-1.585,0-2.639.846-2.639,2.266,0,2.223,2.969,1.864,2.969,2.818,0,.373-.316.495-.717.495a4.863,4.863,0,0,1-2.151-.645v1.929a5.294,5.294,0,0,0,2.151.459c1.621,0,2.739-.825,2.739-2.266C101.665,15.076,98.682,15.506,98.682,14.6Z" transform="translate(-26.77 -3.886)"/>
    <path id="Path_20156" data-name="Path 20156" class="cls-2" d="M106.53,10.24l-1.9.416v6.4a1.987,1.987,0,0,0,1.913,2.057c.036,0,.072,0,.109,0a2.982,2.982,0,0,0,1.37-.265V17.239c-.251.108-1.477.473-1.477-.717V13.653h1.477V11.975h-1.477Z" transform="translate(-29.01 -3.266)"/>
    <path id="Path_20157" data-name="Path 20157" class="cls-2" d="M116.25,10.928l1.958-.409V8.97l-1.958.409Z" transform="translate(-32.298 -2.907)"/>
    <rect id="Rectangle_2575" data-name="Rectangle 2575" class="cls-2" width="1.958" height="6.913" transform="translate(83.952 8.674)"/>
  </g>
</svg>
