<svg xmlns="http://www.w3.org/2000/svg" width="15" height="15" viewBox="0 0 15 15"><g><g><path fill="#3e3e3e" d="M11.668 9.517c-.84 0-1.582.4-2.066 1.014L5.109 8.233c.059-.22.1-.446.1-.685 0-.26-.05-.504-.12-.742L9.564 4.52a2.629 2.629 0 0 0 2.106 1.06 2.645 2.645 0 1 0 0-5.29 2.645 2.645 0 0 0-2.645 2.645c0 .239.043.466.102.686L4.634 5.918a2.634 2.634 0 0 0-2.07-1.016A2.645 2.645 0 0 0-.081 7.55a2.644 2.644 0 0 0 2.645 2.645c.865 0 1.625-.42 2.109-1.062l4.47 2.287c-.07.237-.12.484-.12.744a2.645 2.645 0 1 0 2.645-2.646z"/></g></g></svg>