<?xml version="1.0" encoding="UTF-8"?>
<svg id="SVGDoc" width="34" height="34" xmlns="http://www.w3.org/2000/svg" version="1.1" xmlns:xlink="http://www.w3.org/1999/xlink" xmlns:avocode="https://avocode.com/" viewBox="0 0 34 34"><defs></defs><desc>Generated with Avocode.</desc><g><g><title>Group 331</title><g><title>Ellipse 18</title><path d="M0,17c0,-9.38884 7.61116,-17 17,-17c9.38884,0 17,7.61116 17,17c0,9.38884 -7.61116,17 -17,17c-9.38884,0 -17,-7.61116 -17,-17z" fill="#f5f1f0" fill-opacity="1"></path></g><g><title>share</title><g><title>Group 24</title><g><title>Path 16</title><path d="M20.66833,19.01715c-0.8406,0 -1.58206,0.40048 -2.06648,1.01375l-4.49312,-2.29778c0.05882,-0.21939 0.1011,-0.44607 0.1011,-0.68463c0,-0.2597 -0.05021,-0.50421 -0.12028,-0.74213l4.4733,-2.28718c0.48176,0.64103 1.24239,1.06002 2.10612,1.06002c1.46313,0 2.6467,-1.18357 2.6467,-2.64538c0.00003,-1.46049 -1.18357,-2.64474 -2.64667,-2.64474c-1.45982,0 -2.64471,1.18425 -2.64471,2.64471c0,0.23924 0.04231,0.46656 0.10177,0.68662l-4.49248,2.29779c-0.48506,-0.61392 -1.22787,-1.01572 -2.06979,-1.01572c-1.46181,0 -2.64471,1.18489 -2.64471,2.64603c0,1.46114 1.18293,2.64538 2.64471,2.64538c0.86505,0 1.62504,-0.4203 2.10876,-1.06198l4.47131,2.28719c-0.07006,0.23725 -0.12092,0.48375 -0.12092,0.74413c0,1.46114 1.18489,2.64538 2.64471,2.64538c1.46313,0 2.6467,-1.18425 2.6467,-2.64538c0.00068,-1.46246 -1.1829,-2.64606 -2.64603,-2.64606z" fill="#3e3e3e" fill-opacity="1"></path></g></g></g></g></g></svg>