<svg xmlns="http://www.w3.org/2000/svg" width="16" height="16" viewBox="0 0 16 16"><g><g><path fill="#3e3e3e" d="M13.843 12.397l-1.44 1.431a.945.945 0 0 1-.668.255.903.903 0 0 1-.666-.265l-2.02-2.029a.907.907 0 0 1-.274-.666.95.95 0 0 1 .323-.716l.182.186c.101.105.171.175.21.21.04.037.102.086.187.148a.786.786 0 0 0 .52.162.908.908 0 0 0 .666-.275.908.908 0 0 0 .275-.666c0-.098-.012-.188-.035-.27a.784.784 0 0 0-.127-.25 2.367 2.367 0 0 0-.147-.186 6.505 6.505 0 0 0-.211-.211 41.211 41.211 0 0 1-.187-.181.934.934 0 0 1 .706-.314c.262 0 .484.091.667.274l2.039 2.04a.908.908 0 0 1 .275.666.896.896 0 0 1-.275.657zM6.902 5.544l-.181-.186a6.08 6.08 0 0 0-.211-.21A2.374 2.374 0 0 0 6.324 5a.79.79 0 0 0-.52-.162.908.908 0 0 0-.667.275.907.907 0 0 0-.274.666.787.787 0 0 0 .162.52c.062.085.11.147.147.186.036.04.106.11.21.211l.187.182a.948.948 0 0 1-.706.303.904.904 0 0 1-.667-.264l-2.04-2.04a.908.908 0 0 1-.274-.666c0-.255.092-.474.275-.657l1.441-1.431a.947.947 0 0 1 .667-.265c.261 0 .483.091.666.274l2.02 2.03a.908.908 0 0 1 .274.666.952.952 0 0 1-.323.716zm8.274 4.196l-2.04-2.04a2.723 2.723 0 0 0-1.999-.823c-.797 0-1.477.288-2.04.863l-.862-.863a2.757 2.757 0 0 0 .863-2.049c0-.784-.271-1.447-.814-1.99L6.264.808c-.542-.555-1.209-.833-2-.833-.784 0-1.447.272-1.99.814L.834 2.221A2.675 2.675 0 0 0 0 4.21c0 .784.275 1.45.823 2l2.04 2.039c.549.549 1.215.824 2 .824.797 0 1.477-.288 2.039-.863l.863.863a2.758 2.758 0 0 0-.863 2.049c0 .784.271 1.447.814 1.99l2.02 2.029c.542.556 1.208.833 2 .833.784 0 1.447-.27 1.99-.813l1.44-1.432A2.676 2.676 0 0 0 16 11.74c0-.784-.275-1.45-.824-2z"/></g></g></svg>