<svg xmlns="http://www.w3.org/2000/svg" xmlns:xlink="http://www.w3.org/1999/xlink" width="110" height="75" viewBox="0 0 110 75">
  <defs>
    <filter id="Path_255" x="0" y="0" width="110" height="75" filterUnits="userSpaceOnUse">
      <feOffset dy="3" input="SourceAlpha"/>
      <feGaussianBlur stdDeviation="3" result="blur"/>
      <feFlood flood-opacity="0.161"/>
      <feComposite operator="in" in2="blur"/>
      <feComposite in="SourceGraphic"/>
    </filter>
  </defs>
  <g id="Group_510" data-name="Group 510" transform="translate(-628 -262)">
    <g id="Group_509" data-name="Group 509">
      <g transform="matrix(1, 0, 0, 1, 628, 262)" filter="url(#Path_255)">
        <path id="Path_255-2" data-name="Path 255" d="M8,0H84a8,8,0,0,1,8,8V49a8,8,0,0,1-8,8H8a8,8,0,0,1-8-8V8A8,8,0,0,1,8,0Z" transform="translate(9 6)" fill="#fff"/>
      </g>
      <path id="Polygon_74" data-name="Polygon 74" d="M8.862,2.341a2,2,0,0,1,3.277,0L18.8,11.853A2,2,0,0,1,17.159,15H3.841A2,2,0,0,1,2.2,11.853Z" transform="translate(695 334) rotate(180)" fill="#fff"/>
    </g>
    <path id="Path_256" data-name="Path 256" d="M397.26,157.136l34.97,27.158,34.99-27.158" transform="translate(250.76 124.627)" fill="none" stroke="#d4d7d9" stroke-linecap="round" stroke-linejoin="bevel" stroke-width="2"/>
  </g>
</svg>
