<?xml version="1.0" standalone="no"?>
<!DOCTYPE svg PUBLIC "-//W3C//DTD SVG 20010904//EN"
 "http://www.w3.org/TR/2001/REC-SVG-20010904/DTD/svg10.dtd">
<svg version="1.0" xmlns="http://www.w3.org/2000/svg"
 width="2192.000000pt" height="2192.000000pt" viewBox="0 0 2192.000000 2192.000000"
 preserveAspectRatio="xMidYMid meet">
<metadata>
Created by potrace 1.11, written by Peter Selinger 2001-2013
</metadata>
<g transform="translate(0.000000,2192.000000) scale(0.100000,-0.100000)"
fill="#000000" stroke="none">
<path d="M6019 13925 c-2 -2 -24 -6 -49 -9 -89 -13 -156 -29 -238 -58 -293
-103 -504 -314 -628 -628 -44 -113 -55 -296 -24 -401 55 -181 195 -309 390
-356 8 -2 49 -6 91 -8 68 -4 116 1 214 20 73 15 256 106 315 158 11 9 22 17
25 17 7 0 55 42 120 105 110 106 183 169 245 210 25 16 48 34 52 40 4 5 8 6 8
1 0 -5 8 -2 18 6 18 17 146 84 225 118 86 38 303 109 442 146 139 37 269 84
329 119 45 26 99 78 96 92 -6 27 -25 43 -70 59 -27 10 -50 22 -50 26 0 4 -5 8
-12 8 -6 0 -75 27 -153 59 -138 58 -475 176 -525 184 -14 2 -32 7 -40 10 -15
5 -91 23 -138 32 -13 2 -31 6 -40 9 -9 3 -33 8 -52 10 -19 3 -51 7 -70 10 -19
3 -55 9 -80 12 -51 7 -396 15 -401 9z"/>
<path d="M20940 13419 c-16 -30 4 -40 76 -37 38 1 74 -1 79 -4 6 -4 10 -87 9
-207 l-1 -201 32 0 32 0 -1 205 -1 205 45 1 c25 0 63 0 86 -1 39 -1 41 0 37
27 l-5 28 -190 0 c-162 0 -191 -2 -198 -16z"/>
<path d="M21384 13433 c-5 -2 -8 -96 -7 -211 2 -288 -2 -259 31 -254 l28 4 1
176 c2 243 1 235 19 182 8 -25 21 -58 28 -75 7 -16 22 -55 32 -85 10 -30 22
-59 26 -64 4 -6 8 -18 8 -27 0 -23 50 -32 71 -13 9 8 16 21 16 29 0 12 10 41
44 120 5 11 18 47 30 80 12 33 24 63 28 67 3 4 5 -83 4 -193 l-2 -200 32 3 31
3 1 223 c0 139 -4 226 -10 230 -5 4 -27 7 -47 8 -37 0 -38 -1 -58 -55 -12 -31
-24 -63 -27 -71 -3 -8 -7 -17 -8 -20 -1 -3 -5 -14 -10 -25 -4 -11 -17 -46 -29
-77 -11 -32 -24 -58 -28 -58 -4 0 -11 12 -14 28 -4 15 -11 33 -17 40 -5 6 -6
12 -2 12 4 0 1 7 -6 17 -8 9 -13 17 -11 17 4 1 -5 29 -18 61 -5 11 -16 43 -26
70 -10 28 -19 52 -20 54 -4 5 -78 8 -90 4z"/>
<path d="M15503 13404 c-208 -42 -380 -190 -444 -381 -26 -78 -29 -98 -29
-193 0 -79 1 -89 20 -160 48 -184 215 -350 410 -409 29 -9 159 -24 195 -23
121 5 263 54 346 119 73 57 179 192 179 227 0 8 4 17 9 20 8 5 23 56 36 126
19 96 -1 254 -45 352 -38 86 -142 205 -210 240 -14 7 -27 16 -30 19 -10 11
-150 60 -187 66 -77 10 -192 9 -250 -3z"/>
<path d="M2 10645 l3 -2610 510 -1 c281 0 515 2 521 4 9 2 12 169 12 630 1
345 1 632 1 639 1 10 42 52 123 124 92 83 175 157 198 179 101 95 110 101 125
86 8 -8 15 -19 15 -25 0 -6 5 -11 10 -11 6 0 10 -5 10 -10 0 -6 30 -57 68
-113 37 -57 72 -112 79 -123 6 -10 40 -64 75 -119 35 -55 65 -104 67 -109 2
-6 8 -15 13 -21 21 -23 128 -195 128 -205 0 -5 4 -10 9 -10 5 0 14 -13 21 -30
7 -16 16 -30 20 -30 4 0 12 -12 19 -27 7 -16 35 -60 62 -100 27 -40 49 -77 49
-83 0 -5 3 -10 8 -10 4 0 21 -23 37 -51 42 -72 45 -77 89 -144 21 -33 49 -76
61 -95 13 -19 53 -81 89 -138 36 -57 66 -107 66 -112 0 -6 5 -10 10 -10 6 0
10 -7 10 -15 0 -8 5 -15 10 -15 6 0 10 -5 10 -11 0 -7 8 -19 19 -28 17 -14 82
-16 657 -16 352 0 639 2 638 5 0 5 -34 59 -47 75 -4 6 -57 82 -117 170 -60 88
-127 185 -149 216 -23 31 -41 61 -41 67 0 6 -6 15 -12 19 -7 4 -40 49 -73 98
-33 50 -63 92 -67 93 -5 2 -8 8 -8 13 0 6 -5 15 -11 22 -11 13 -167 237 -184
265 -21 34 -50 77 -60 88 -11 13 -200 289 -225 329 -8 13 -35 52 -59 87 -24
35 -62 90 -85 123 -22 33 -44 62 -48 63 -5 2 -6 8 -2 13 3 5 1 9 -4 9 -6 0
-23 21 -38 48 -15 26 -30 49 -34 52 -5 4 -62 86 -170 244 -8 12 -28 44 -45 70
-16 26 -38 57 -47 68 -9 10 -35 48 -59 84 l-42 64 64 61 c70 66 331 316 464
444 46 44 158 152 251 240 92 88 191 183 219 210 81 77 426 408 441 423 8 7
14 15 14 17 0 3 -281 5 -625 5 l-624 0 -301 -297 c-880 -870 -1065 -1052
-1068 -1048 -2 2 -5 629 -6 1392 l-1 1388 -523 0 -522 1 2 -2611z"/>
<path d="M13457 13202 c-2 -4 -3 -417 -2 -919 1 -981 4 -933 -45 -868 -21 29
-120 123 -160 154 -19 14 -37 28 -40 32 -21 24 -196 129 -215 129 -7 0 -15 4
-17 8 -5 12 -146 68 -228 90 -69 18 -101 25 -185 40 -43 7 -401 7 -460 -1 -27
-3 -70 -9 -95 -12 -79 -11 -212 -46 -310 -81 -94 -35 -240 -101 -250 -114 -3
-4 -15 -10 -27 -14 -13 -4 -29 -13 -35 -20 -7 -6 -31 -23 -53 -36 -22 -13 -56
-37 -75 -52 -19 -16 -46 -38 -60 -50 -75 -62 -154 -142 -236 -240 -72 -86
-180 -270 -230 -392 -14 -33 -29 -70 -34 -81 -5 -11 -21 -58 -35 -105 -15 -47
-30 -92 -33 -100 -3 -8 -7 -24 -8 -35 -2 -11 -11 -49 -19 -85 -37 -164 -48
-271 -48 -495 -1 -183 6 -292 24 -400 6 -33 12 -71 14 -85 12 -72 43 -187 77
-285 21 -60 40 -114 42 -120 27 -84 171 -352 206 -385 3 -3 25 -32 50 -64 99
-130 276 -287 433 -384 38 -23 70 -42 72 -42 3 0 40 -18 85 -39 75 -37 136
-61 153 -61 4 0 21 -7 37 -15 16 -8 33 -15 37 -15 5 -1 24 -5 43 -10 19 -5 49
-12 65 -15 17 -3 35 -7 40 -9 6 -1 33 -6 60 -10 28 -4 66 -10 85 -14 46 -8
414 -8 464 1 21 3 57 9 79 13 23 3 45 8 49 11 5 2 19 6 32 9 33 6 140 41 184
60 79 34 182 89 182 96 0 4 7 8 15 8 14 0 92 51 140 92 11 9 31 26 45 38 50
42 147 141 175 180 17 22 33 40 36 40 3 0 16 -51 28 -112 12 -62 31 -153 41
-203 11 -49 22 -111 26 -138 3 -26 11 -50 18 -54 6 -4 212 -8 457 -8 l446 0 0
2586 0 2587 -519 0 c-285 0 -519 -3 -521 -6z m-727 -2187 c19 -3 58 -14 85
-23 28 -9 52 -16 55 -17 3 0 31 -12 62 -27 265 -123 451 -397 526 -773 2 -11
5 -110 7 -220 3 -191 1 -212 -30 -370 -30 -155 -154 -384 -270 -501 -58 -58
-162 -132 -225 -160 -19 -8 -49 -22 -66 -29 -17 -8 -42 -17 -55 -19 -13 -3
-24 -5 -24 -6 0 -2 -7 -3 -65 -15 -19 -4 -75 -8 -125 -10 -49 -2 -92 -5 -95
-6 -3 -1 -8 -1 -12 0 -4 0 -29 3 -55 6 -27 3 -59 7 -73 10 -14 2 -41 7 -60 10
-19 3 -39 10 -44 15 -6 6 -16 10 -24 10 -23 0 -142 60 -202 101 -202 139 -369
421 -406 689 -3 19 -8 51 -12 70 -14 66 -5 389 13 450 2 8 6 28 9 43 6 36 34
136 45 162 62 144 164 314 199 335 10 5 13 10 9 10 -15 0 88 91 153 134 155
104 308 146 515 141 72 -2 146 -6 165 -10z"/>
<path d="M5498 11875 c-2 -1 -34 -5 -73 -9 -60 -5 -117 -14 -260 -41 -16 -3
-55 -13 -85 -21 -30 -9 -62 -17 -70 -19 -8 -2 -28 -9 -45 -15 -16 -6 -37 -13
-45 -15 -35 -9 -106 -37 -114 -46 -6 -5 -16 -9 -23 -9 -21 0 -186 -84 -261
-133 -37 -24 -71 -45 -77 -47 -5 -2 -15 -8 -21 -14 -6 -6 -30 -27 -54 -46
-140 -115 -215 -193 -305 -315 -66 -90 -145 -220 -145 -240 0 -8 -4 -15 -8
-15 -5 0 -23 -37 -41 -82 -18 -46 -37 -92 -42 -103 -36 -83 -96 -305 -114
-425 -25 -168 -25 -551 -1 -675 2 -11 7 -40 11 -65 4 -25 9 -54 12 -65 3 -11
9 -38 13 -60 39 -174 152 -450 241 -583 16 -24 29 -47 29 -52 0 -4 3 -10 8
-12 4 -1 27 -30 51 -63 66 -89 259 -278 341 -335 19 -13 37 -27 40 -30 5 -6
119 -74 180 -107 63 -34 211 -97 223 -95 4 1 7 -3 7 -8 0 -5 3 -9 8 -8 4 1 41
-9 82 -22 41 -13 80 -25 85 -26 6 -2 19 -5 30 -8 30 -8 151 -35 188 -42 32 -5
46 -7 147 -21 73 -10 496 -9 585 1 59 6 132 20 282 52 12 2 35 9 50 15 16 6
28 10 28 9 0 -4 150 43 160 49 6 4 28 13 50 20 104 35 415 209 415 233 0 4 5
8 11 8 41 0 379 357 379 399 0 5 3 11 8 13 10 4 56 77 73 116 7 17 17 32 21
32 5 0 8 5 8 11 0 5 13 38 29 72 28 60 75 177 76 187 0 3 4 11 8 18 5 6 6 12
3 12 -3 0 1 17 9 38 30 78 67 254 82 391 9 85 9 393 0 491 -8 90 -12 119 -42
263 -32 160 -139 433 -219 562 -48 75 -72 110 -78 113 -5 2 -8 8 -8 14 0 6
-12 25 -27 43 -16 18 -44 51 -63 75 -29 34 -121 128 -174 175 -81 73 -282 205
-386 252 -128 58 -312 124 -390 139 -14 3 -43 10 -65 16 -22 5 -49 12 -60 14
-11 2 -31 6 -44 9 -13 2 -49 7 -80 11 -31 3 -65 8 -76 11 -20 5 -472 12 -477
8z m338 -858 c12 -3 37 -8 57 -11 39 -6 114 -30 167 -52 52 -23 104 -48 110
-54 3 -3 32 -23 65 -45 72 -48 173 -148 200 -199 11 -20 23 -36 27 -36 5 0 8
-4 8 -10 0 -5 13 -31 28 -57 69 -118 129 -317 137 -453 3 -36 5 -65 5 -65 1 0
2 -47 2 -105 0 -101 -7 -214 -17 -259 -10 -45 -13 -57 -25 -101 -58 -224 -214
-466 -361 -562 -27 -17 -49 -35 -49 -40 0 -4 -8 -8 -17 -8 -9 0 -24 -6 -32
-13 -31 -27 -179 -81 -251 -93 -45 -7 -239 -18 -250 -14 -3 1 -23 3 -45 4
-263 19 -501 163 -649 394 -98 152 -152 302 -182 502 -13 90 -6 404 11 459 2
9 7 30 10 46 3 17 7 35 9 40 28 102 30 106 83 225 9 19 24 47 35 63 11 15 16
27 11 27 -4 0 -3 4 2 8 6 4 22 25 37 48 94 146 325 303 498 339 8 2 16 4 18 4
78 24 287 35 358 18z"/>
<path d="M18328 11875 c-2 -2 -32 -6 -68 -10 -60 -6 -188 -28 -235 -39 -70
-17 -147 -39 -193 -56 -28 -11 -55 -20 -60 -21 -4 -1 -18 -6 -32 -12 -14 -6
-27 -11 -30 -11 -3 -1 -21 -9 -40 -18 -19 -9 -46 -21 -60 -27 -14 -6 -33 -15
-42 -21 -29 -16 -51 -28 -95 -51 -24 -13 -43 -26 -43 -30 0 -4 -9 -10 -20 -14
-31 -10 -178 -130 -266 -219 -84 -84 -224 -261 -224 -283 0 -7 -4 -13 -8 -13
-13 0 -156 -293 -167 -340 -2 -8 -11 -35 -20 -60 -19 -53 -51 -172 -60 -220
-3 -18 -7 -36 -9 -39 -2 -3 -7 -28 -10 -56 -4 -27 -9 -57 -11 -65 -23 -78 -22
-558 1 -673 5 -27 11 -61 19 -107 8 -49 34 -156 53 -215 39 -128 153 -385 173
-393 5 -2 9 -9 9 -15 0 -10 83 -140 100 -157 3 -3 30 -34 60 -70 183 -215 399
-368 680 -480 89 -35 211 -77 253 -85 10 -2 27 -7 37 -10 43 -14 255 -53 330
-62 82 -9 515 -9 590 1 169 21 386 76 520 131 69 28 83 33 91 31 4 0 15 6 25
14 11 9 44 29 74 45 52 27 165 100 219 142 67 51 281 273 281 292 0 4 6 14 14
20 18 15 90 136 128 213 36 75 78 178 72 178 -3 0 1 10 7 22 11 21 45 153 53
206 3 19 -1 22 -28 23 -199 5 -815 3 -828 -3 -9 -5 -19 -4 -22 0 -6 10 -137 5
-147 -6 -4 -4 -10 -18 -12 -32 -2 -14 -9 -38 -15 -53 -7 -16 -12 -30 -12 -32
0 -2 -17 -32 -37 -67 -103 -173 -285 -286 -532 -332 -70 -13 -339 -15 -386 -3
-11 3 -33 8 -50 12 -130 30 -293 120 -386 214 -39 39 -101 128 -141 201 -37
67 -93 214 -101 266 -3 16 -8 40 -11 54 -3 14 -8 55 -10 92 l-3 67 1370 -1
c940 0 1373 4 1380 11 6 6 11 21 13 33 1 13 5 52 9 88 9 71 9 369 1 438 -8 73
-27 185 -36 217 -5 17 -12 45 -15 64 -3 19 -10 42 -15 51 -5 10 -6 20 -3 24 3
3 0 6 -7 6 -7 0 -11 3 -8 6 6 5 -20 87 -49 154 -54 127 -179 343 -228 396 -6
6 -27 30 -46 53 -88 108 -222 226 -363 320 -59 39 -234 130 -311 161 -37 15
-90 35 -95 36 -3 0 -43 12 -90 27 -72 23 -198 53 -250 62 -17 2 -89 13 -140
21 -36 6 -487 14 -492 9z m371 -780 c156 -13 354 -90 451 -175 14 -12 37 -32
52 -45 39 -33 124 -147 154 -208 46 -91 80 -200 80 -255 l-1 -32 -832 0 c-458
0 -844 0 -857 0 -22 0 -23 2 -15 48 20 130 84 272 169 376 27 34 123 126 131
126 4 0 14 7 22 15 22 21 135 81 197 104 81 29 128 40 205 47 39 3 71 7 72 8
3 2 97 -2 172 -9z"/>
<path d="M8163 11672 c1 -90 -1 -166 -6 -169 -4 -2 -4 -9 0 -15 3 -7 6 -64 5
-127 -1 -64 -2 -132 -1 -151 3 -146 1 -329 -4 -337 -4 -6 -4 -13 0 -16 8 -8 8
-291 0 -304 -4 -6 -4 -13 0 -16 3 -4 5 -62 4 -129 0 -68 -1 -139 0 -158 3
-160 0 -440 -5 -449 -4 -6 -4 -11 1 -11 10 0 10 -190 0 -206 -3 -6 -4 -14 0
-18 3 -3 6 -59 5 -124 -1 -64 -2 -133 -1 -152 4 -144 0 -440 -5 -449 -4 -6 -4
-11 1 -11 10 0 10 -190 0 -206 -3 -6 -4 -14 0 -18 9 -8 7 -391 -1 -405 -4 -6
-4 -11 1 -11 4 0 8 -35 7 -77 l-1 -78 518 0 c340 0 519 3 520 10 1 5 2 474 4
1040 1 567 6 1041 9 1055 4 14 9 34 10 45 11 65 49 181 87 263 86 188 203 302
389 381 38 17 70 28 70 25 0 -2 8 0 18 5 37 20 96 24 357 27 149 1 284 3 300
3 l30 1 0 467 c0 258 -3 470 -7 473 -16 13 -384 1 -470 -15 -81 -16 -143 -32
-193 -51 -22 -9 -40 -15 -40 -14 0 4 -60 -22 -117 -50 -117 -58 -242 -162
-336 -279 -20 -25 -42 -52 -49 -59 -6 -6 -15 -21 -18 -32 -3 -11 -10 -20 -15
-20 -5 0 -12 -9 -15 -21 -11 -35 -15 -22 -41 141 -3 19 -12 73 -20 120 -9 47
-17 101 -20 120 -3 19 -7 46 -10 60 -2 14 -7 40 -9 59 -3 19 -8 37 -11 40 -2
3 -216 5 -474 6 l-469 0 2 -163z"/>
<path d="M15110 9939 c0 -1509 3 -1898 13 -1901 6 -2 239 -4 517 -4 l505 1 3
1900 2 1900 -520 0 -520 0 0 -1896z"/>
<path d="M21228 9225 c-2 -2 -23 -6 -48 -10 -25 -4 -49 -8 -55 -9 -30 -6 -145
-52 -145 -58 0 -5 -5 -8 -11 -8 -26 0 -128 -84 -182 -150 -39 -47 -88 -150
-105 -221 -21 -83 -23 -280 -3 -317 6 -11 11 -28 11 -36 0 -45 93 -199 153
-253 49 -44 136 -99 189 -119 23 -9 52 -20 63 -25 51 -22 260 -37 289 -21 5 3
24 6 42 8 32 3 164 51 174 63 3 3 12 7 20 9 8 2 24 12 36 23 11 10 24 19 27
19 11 0 98 89 130 133 37 49 74 135 91 208 18 76 18 213 0 292 -14 59 -66 180
-88 203 -6 6 -18 22 -26 34 -30 46 -164 154 -200 162 -8 2 -17 6 -20 9 -10 11
-126 48 -170 54 -53 8 -167 14 -172 10z"/>
</g>
</svg>
