<svg xmlns="http://www.w3.org/2000/svg" width="612.737" height="678.362" viewBox="0 0 612.737 678.362">
  <path id="Path_20480" data-name="Path 20480" d="M2961.4,821.485c-4.532-51.695-19.923-104.907-35-147.047-13.039-36.443-25.841-64.606-31.175-76.338-5.167-11.365-10.152-22.332-15.075-32.789-26.62-56.549-51.381-98.164-92.845-107.007-51.393-10.961-112.832,31.761-164.386,91.157q1.363,1.279,2.691,2.6-1.328-1.323-2.691-2.6c-39.969,46.05-73.989,102.117-92.778,150.978h0c-17.155,44.611-21.617,83.21-6.3,102.668,42.893,54.482,237.578-45.194,260.447-1.156,19.493,37.537-117.814,117.941-97.828,169.847,15.475,40.189,123.925,59.859,198.329,24.049a136.7,136.7,0,0,0,32.962-21.938C2957.581,937.6,2966.573,880.532,2961.4,821.485Z" transform="matrix(-0.94, -0.342, 0.342, -0.94, 2628.229, 1967.062)" fill="none" stroke="#fd6633" stroke-miterlimit="10" stroke-width="0.5"/>
</svg>
