<svg xmlns="http://www.w3.org/2000/svg" width="1065.401" height="1303.664" viewBox="0 0 1065.401 1303.664">
  <g id="Group_20983" data-name="Group 20983" transform="translate(-942.337 -504.501)">
    <path id="Path_20410" data-name="Path 20410" d="M1214.524,595.038c-158.615,94.894-267.113,268.525-271.54,444-9.526,377.64,465.27,671.855,671.509,583.443,268.866-115.259,270.363-961.852-29.356-1097.164C1440.332,459.945,1251.931,572.659,1214.524,595.038Z" fill="none" stroke="#fd6633" stroke-width="1"/>
    <path id="Path_20411" data-name="Path 20411" d="M1816.313,1358.282c-92.973,1.433-186.026,60.594-212.828,143.109-47.9,147.467,130.214,325.154,245.852,304.564,125.334-22.317,212.87-283.894,117.423-392.631C1917.083,1356.73,1832.319,1358.035,1816.313,1358.282Z" fill="none" stroke="#fd6633" stroke-width="1"/>
    <line id="Line_336" data-name="Line 336" x2="23" transform="translate(1733.686 713.672)" fill="none" stroke="#ff4c00" stroke-width="1"/>
    <line id="Line_337" data-name="Line 337" y1="13" transform="translate(1612.686 1471.672)" fill="none" stroke="#ff4c00" stroke-width="1"/>
  </g>
</svg>
