<svg xmlns="http://www.w3.org/2000/svg" width="1066.402" height="1304.673" viewBox="0 0 1066.402 1304.673">
  <g id="Group_20982" data-name="Group 20982" transform="translate(-941.838 -503.996)">
    <path id="Path_20408" data-name="Path 20408" d="M1214.524,595.038c-158.615,94.894-267.113,268.525-271.54,444-9.526,377.64,465.27,671.855,671.509,583.443,268.866-115.259,270.363-961.852-29.356-1097.164C1440.332,459.945,1251.931,572.659,1214.524,595.038Z" fill="none" stroke="#fff" stroke-width="2"/>
    <path id="Path_20409" data-name="Path 20409" d="M1816.313,1358.282c-92.973,1.433-186.026,60.594-212.828,143.109-47.9,147.467,130.214,325.154,245.852,304.564,125.334-22.317,212.87-283.894,117.423-392.631C1917.083,1356.73,1832.319,1358.035,1816.313,1358.282Z" fill="none" stroke="#fff" stroke-width="2"/>
    <path id="Path_25063" data-name="Path 25063" d="M0,0H49.8" transform="translate(1784.343 979.672)" fill="none" stroke="#f60" stroke-width="5"/>
    <path id="Path_25064" data-name="Path 25064" d="M0,0H82.194" transform="translate(1917.286 1336.576) rotate(90)" fill="none" stroke="#f60" stroke-width="5"/>
  </g>
</svg>
