<svg xmlns="http://www.w3.org/2000/svg" width="111.224" height="72.133" viewBox="0 0 111.224 72.133">
  <g id="Group_20760" data-name="Group 20760" transform="translate(-1106.368 -3705.899)">
    <g id="Group_20759" data-name="Group 20759" transform="translate(772.495 2430.819)">
      <g id="Group_20749" data-name="Group 20749" transform="translate(353.78 1291.846)">
        <path id="Path_20225" data-name="Path 20225" d="M386.153,1320.211l-.264.647a7.172,7.172,0,0,1-3.3.787,5.836,5.836,0,0,1-4.083-1.427,4.806,4.806,0,0,1-1.57-3.733,4.925,4.925,0,0,1,.783-2.775,4.855,4.855,0,0,1,2.068-1.775,6.854,6.854,0,0,1,2.886-.589,8.682,8.682,0,0,1,1.831.2,7.69,7.69,0,0,1,1.511.466l.049.07a8.885,8.885,0,0,0-.3,1.929l-.049.055h-.327l-.056-.055-.069-1.183a3.763,3.763,0,0,0-1.229-.631,4.981,4.981,0,0,0-1.5-.226,4.361,4.361,0,0,0-2.109.5,3.517,3.517,0,0,0-1.448,1.462,4.89,4.89,0,0,0-.515,2.343,4.8,4.8,0,0,0,.606,2.444,4.148,4.148,0,0,0,1.654,1.616,5.089,5.089,0,0,0,2.447.564,5.842,5.842,0,0,0,1.191-.118,4.473,4.473,0,0,0,.95-.292,4.323,4.323,0,0,0,.728-.424Z" transform="translate(-376.934 -1311.347)"/>
        <path id="Path_20226" data-name="Path 20226" d="M398.558,1311.784q1.775.056,1.991.056t2-.056l.055.048v.349l-.055.049q-.481.013-.742.041a.9.9,0,0,0-.379.1.493.493,0,0,0-.157.359,6.179,6.179,0,0,0-.038.784l-.014,1.6v.975q1.525.042,2.889.042,1.866,0,2.841-.042v-.975l-.014-1.358a9.6,9.6,0,0,0-.042-1.024.679.679,0,0,0-.1-.306.481.481,0,0,0-.251-.125,5.991,5.991,0,0,0-.933-.076l-.049-.049v-.349l.049-.048q1.782.056,2,.056.236,0,2-.056l.056.048v.349l-.056.049q-.487.013-.748.041a.9.9,0,0,0-.38.1.484.484,0,0,0-.153.359,7.521,7.521,0,0,0-.042.784l-.014,1.6v3.224l.014,1.358a9.325,9.325,0,0,0,.042,1.017.648.648,0,0,0,.1.307.52.52,0,0,0,.251.128,5.453,5.453,0,0,0,.93.08l.056.042v.348l-.056.055q-1.782-.055-2-.055t-2,.055l-.049-.055v-.348l.049-.042a7.4,7.4,0,0,0,.87-.069.613.613,0,0,0,.286-.108.592.592,0,0,0,.118-.282,5.7,5.7,0,0,0,.049-.961l.014-1.469v-1.588q-2.061-.042-2.889-.042-.849,0-2.841.042v1.588l.007,1.358a9.5,9.5,0,0,0,.042,1.017.652.652,0,0,0,.1.307.524.524,0,0,0,.254.128,5.472,5.472,0,0,0,.926.08l.055.042v.348l-.055.055q-1.776-.055-2-.055t-1.991.055l-.056-.055v-.348l.056-.042a7.331,7.331,0,0,0,.863-.069.64.64,0,0,0,.289-.108.541.541,0,0,0,.118-.282,6.349,6.349,0,0,0,.052-.961l.007-1.469v-3.224l-.014-1.358q-.007-.794-.038-1.024a.626.626,0,0,0-.1-.306.5.5,0,0,0-.254-.125,5.92,5.92,0,0,0-.926-.076l-.056-.049v-.349Z" transform="translate(-388.531 -1311.582)"/>
        <path id="Path_20227" data-name="Path 20227" d="M424.222,1311.784l.87.028q.856.028,1.121.028.236,0,2-.056l.056.048v.349l-.056.049q-.48.013-.742.041a.907.907,0,0,0-.38.1.493.493,0,0,0-.157.359,6.2,6.2,0,0,0-.038.784l-.014,1.6v3.224l.007,1.358a9.379,9.379,0,0,0,.042,1.017.653.653,0,0,0,.1.307.524.524,0,0,0,.254.128,5.478,5.478,0,0,0,.926.08l.056.042v.348l-.056.055q-.035,0-1.225-.042-.5-.014-.773-.014-.216,0-1.992.055l-.055-.055v-.348l.055-.042a7.343,7.343,0,0,0,.864-.069.643.643,0,0,0,.289-.108.549.549,0,0,0,.118-.282,6.414,6.414,0,0,0,.052-.961l.007-1.469v-3.224l-.014-1.358q-.007-.794-.038-1.024a.631.631,0,0,0-.1-.306.5.5,0,0,0-.254-.125,5.929,5.929,0,0,0-.926-.076l-.055-.049v-.349Z" transform="translate(-402.332 -1311.582)"/>
        <path id="Path_20228" data-name="Path 20228" d="M444.079,1320.211l-.265.647a7.171,7.171,0,0,1-3.3.787,5.836,5.836,0,0,1-4.083-1.427,4.806,4.806,0,0,1-1.57-3.733,4.921,4.921,0,0,1,.784-2.775,4.854,4.854,0,0,1,2.068-1.775,6.854,6.854,0,0,1,2.886-.589,8.678,8.678,0,0,1,1.831.2,7.69,7.69,0,0,1,1.511.466l.049.07a8.889,8.889,0,0,0-.3,1.929l-.049.055h-.327l-.056-.055-.069-1.183a3.759,3.759,0,0,0-1.229-.631,4.98,4.98,0,0,0-1.5-.226,4.362,4.362,0,0,0-2.11.5,3.52,3.52,0,0,0-1.448,1.462,4.89,4.89,0,0,0-.515,2.343,4.809,4.809,0,0,0,.606,2.444,4.148,4.148,0,0,0,1.654,1.616,5.089,5.089,0,0,0,2.447.564,5.841,5.841,0,0,0,1.191-.118,4.486,4.486,0,0,0,.95-.292,4.338,4.338,0,0,0,.728-.424Z" transform="translate(-408.081 -1311.347)"/>
        <path id="Path_20229" data-name="Path 20229" d="M456.25,1321.565l-.063-.056v-.362l.063-.056a2.956,2.956,0,0,0,.655-.053.556.556,0,0,0,.261-.181,5.754,5.754,0,0,0,.463-.888l.731-1.588,1.894-4.289q.536-1.261,1.066-2.52h.453l2.973,6.99.4.933q.174.4.4.864a2.685,2.685,0,0,0,.313.55.591.591,0,0,0,.216.128,2.29,2.29,0,0,0,.575.053l.055.056v.362l-.055.056q-.739-.062-1.33-.062-1.156.034-2.311.062l-.056-.056v-.362l.056-.056a5.659,5.659,0,0,0,.975-.066.231.231,0,0,0,.2-.24,1.188,1.188,0,0,0-.1-.4l-.857-2.123h-4.031l-.759,1.782a2.106,2.106,0,0,0-.2.7.272.272,0,0,0,.188.257,3.163,3.163,0,0,0,.947.091l.063.056v.362l-.056.056q-.9-.055-1.573-.056Q457.03,1321.51,456.25,1321.565Zm3.175-3.906h3.523l-1.747-4.2Z" transform="translate(-419.549 -1311.469)"/>
        <path id="Path_20230" data-name="Path 20230" d="M490.6,1317.593v.208l-.028.084-.341.2a.435.435,0,0,0-.147.118,2.425,2.425,0,0,0-.052.414q-.031.373-.031.908a12.391,12.391,0,0,0,.077,1.316l-.042.07a10.872,10.872,0,0,1-3.92.731,6.488,6.488,0,0,1-2.792-.585,4.624,4.624,0,0,1-1.978-1.734,4.977,4.977,0,0,1-.731-2.729,4.8,4.8,0,0,1,1.647-3.83,6.352,6.352,0,0,1,4.3-1.42,8.861,8.861,0,0,1,3.5.661l.049.077a16.611,16.611,0,0,0-.293,1.957l-.055.049h-.32l-.056-.056-.035-.738a2.277,2.277,0,0,0-.045-.425.486.486,0,0,0-.15-.164,3.45,3.45,0,0,0-.644-.32,5.221,5.221,0,0,0-1.041-.32,5.928,5.928,0,0,0-1.121-.1,4.681,4.681,0,0,0-2.256.529,3.423,3.423,0,0,0-1.479,1.542,5.037,5.037,0,0,0-.5,2.253,5.383,5.383,0,0,0,.536,2.385,4.063,4.063,0,0,0,1.539,1.723,4.344,4.344,0,0,0,2.333.62,6.289,6.289,0,0,0,1.18-.115,3.514,3.514,0,0,0,.992-.324,4.067,4.067,0,0,0,.063-.9v-.772a1.977,1.977,0,0,0-.07-.686.469.469,0,0,0-.345-.191,8.377,8.377,0,0,0-1.187-.069l-.062-.063v-.306l.062-.063.425.014q1.094.035,1.783.035.4,0,1.163-.042Z" transform="translate(-432.685 -1311.347)"/>
        <path id="Path_20231" data-name="Path 20231" d="M503.917,1316.6a6.183,6.183,0,0,1,.3-1.95,4.523,4.523,0,0,1,1.02-1.674,4.93,4.93,0,0,1,1.737-1.19,5.956,5.956,0,0,1,2.3-.421,5.369,5.369,0,0,1,3.781,1.292,4.549,4.549,0,0,1,1.407,3.526,5.769,5.769,0,0,1-.689,2.827,4.822,4.822,0,0,1-1.974,1.949,5.959,5.959,0,0,1-2.886.7,5.607,5.607,0,0,1-2.089-.38,4.258,4.258,0,0,1-1.625-1.131,4.6,4.6,0,0,1-.975-1.741A6.2,6.2,0,0,1,503.917,1316.6Zm1.448-.459a6.765,6.765,0,0,0,.275,1.827,4.793,4.793,0,0,0,.821,1.678,3.534,3.534,0,0,0,1.26,1.041,4.011,4.011,0,0,0,3.548-.153,3.108,3.108,0,0,0,1.281-1.536,5.956,5.956,0,0,0,.439-2.336,6.231,6.231,0,0,0-.5-2.541,3.364,3.364,0,0,0-1.428-1.65,4.153,4.153,0,0,0-2.054-.515,3.447,3.447,0,0,0-2.667,1.058A4.466,4.466,0,0,0,505.365,1316.139Z" transform="translate(-445.214 -1311.356)"/>
      </g>
      <g id="Group_20750" data-name="Group 20750" transform="translate(343.868 1308.958)">
        <path id="Path_20232" data-name="Path 20232" d="M368.325,1348.845l.063.055v.342l-.056.048a5.1,5.1,0,0,0-.951.076.432.432,0,0,0-.261.185,1.169,1.169,0,0,0-.087.5q-.01.377-.038,2.124v3.21q0,.7.021,1.574a4.267,4.267,0,0,0,.087,1.02.407.407,0,0,0,.24.209,4.345,4.345,0,0,0,.989.087l.056.048v.341l-.063.056q-1.135-.063-1.977-.063-.571,0-1.943.063l-.062-.056v-.334l.055-.056a5.034,5.034,0,0,0,.95-.077.429.429,0,0,0,.261-.185,1.221,1.221,0,0,0,.091-.511q.014-.383.035-2.117v-5.11l-2.4,5.027q-.906,1.887-1.581,3.551h-.271q-.39-.9-.641-1.434l-3.328-6.914v4.866q0,.683.018,1.57a4.039,4.039,0,0,0,.087,1.027.441.441,0,0,0,.244.209,4.063,4.063,0,0,0,.988.084l.056.055v.334l-.063.062-.446-.021q-.689-.034-1.183-.035-.223,0-1.664.055l-.055-.055v-.334l.055-.062a4.91,4.91,0,0,0,.947-.07.445.445,0,0,0,.261-.188,1.114,1.114,0,0,0,.09-.494q.01-.362.031-2.138v-3.188q0-.634-.018-1.542a4.425,4.425,0,0,0-.084-1.052.422.422,0,0,0-.24-.213,4.092,4.092,0,0,0-.989-.083l-.055-.056v-.334l.062-.063q.481.035,1.3.035.766,0,1.336-.035.585,1.351,1.122,2.444l2.639,5.417,2.381-4.964q.968-2.013,1.3-2.9.669.035,1.316.035Q367.531,1348.88,368.325,1348.845Z" transform="translate(-355.493 -1348.622)"/>
        <path id="Path_20233" data-name="Path 20233" d="M384.684,1358.581l-.062-.055v-.362l.062-.055a2.957,2.957,0,0,0,.655-.053.556.556,0,0,0,.261-.181,5.727,5.727,0,0,0,.463-.888l.731-1.588,1.894-4.289q.536-1.261,1.066-2.521h.453l2.973,6.99.4.933q.174.4.4.864a2.672,2.672,0,0,0,.313.55.589.589,0,0,0,.216.129,2.292,2.292,0,0,0,.575.053l.055.055v.362l-.055.055q-.739-.062-1.33-.062-1.156.035-2.311.063l-.056-.055v-.362l.056-.055a5.648,5.648,0,0,0,.974-.067.231.231,0,0,0,.2-.24,1.185,1.185,0,0,0-.1-.4l-.857-2.124h-4.031l-.759,1.783a2.1,2.1,0,0,0-.2.7.272.272,0,0,0,.188.258,3.151,3.151,0,0,0,.947.091l.063.055v.362l-.056.055q-.9-.056-1.573-.055Q385.464,1358.525,384.684,1358.581Zm3.175-3.906h3.523l-1.747-4.2Z" transform="translate(-371.156 -1348.484)"/>
        <path id="Path_20234" data-name="Path 20234" d="M408.72,1348.841l.055-.049q1.275.056,1.985.056.787,0,2.124-.049c.329-.01.569-.014.717-.014a3.354,3.354,0,0,1,2.388.64,2.1,2.1,0,0,1,.627,1.518,2.382,2.382,0,0,1-.307,1.149,2.732,2.732,0,0,1-.905.964,4.519,4.519,0,0,1-1.65.6q.2.271.7.94l.989,1.309q.48.647,1.03,1.368a4.429,4.429,0,0,0,.71.815.877.877,0,0,0,.275.115,2.275,2.275,0,0,0,.366.021l.056.056v.327l-.063.063a6.432,6.432,0,0,0-.794-.042q-.494,0-1.079.042-.481-.585-1.511-2.027-1.2-1.671-2.451-3.1l.07-.215q.362.021.564.021a2.829,2.829,0,0,0,1.887-.578,1.986,1.986,0,0,0,.682-1.6,1.643,1.643,0,0,0-.613-1.389,2.657,2.657,0,0,0-1.657-.47,4.609,4.609,0,0,0-1.379.2,14.035,14.035,0,0,0-.1,2.611v3.224l.007,1.357a9.493,9.493,0,0,0,.042,1.017.65.65,0,0,0,.1.306.521.521,0,0,0,.254.129,5.477,5.477,0,0,0,.926.08l.055.042v.348l-.055.055q-.035,0-1.226-.042-.494-.014-.773-.014-.216,0-1.992.055l-.055-.055v-.348l.055-.042a7.25,7.25,0,0,0,.864-.069.636.636,0,0,0,.289-.108.545.545,0,0,0,.118-.282,6.418,6.418,0,0,0,.052-.961l.007-1.469v-3.224l-.014-1.357c0-.53-.018-.87-.038-1.024a.631.631,0,0,0-.1-.306.506.506,0,0,0-.254-.126,6.006,6.006,0,0,0-.926-.076l-.055-.048Z" transform="translate(-384.114 -1348.59)"/>
        <path id="Path_20235" data-name="Path 20235" d="M432.175,1353.6q1.748-1.58,2.524-2.357l1.281-1.281a6.388,6.388,0,0,0,.6-.651v-.453l.07-.056q.529.028,1.156.028.139,0,1.1-.021l.069.063v.327l-.055.056a3.528,3.528,0,0,0-.884.073,2.447,2.447,0,0,0-.693.446q-.456.372-1.048.915l-2.82,2.577,4.192,3.878q1.01.94,1.132,1.023a1.069,1.069,0,0,0,.5.1l.049.056v.292l-.049.056q-.4-.028-.835-.028-.257,0-1.128.028-.634-.6-1.11-1.059t-4.056-3.732v1.483l.007,1.357a9.374,9.374,0,0,0,.042,1.017.653.653,0,0,0,.1.307.524.524,0,0,0,.254.128,5.478,5.478,0,0,0,.926.08l.056.042v.348l-.056.055q-.035,0-1.225-.042-.5-.014-.773-.014-.216,0-1.992.055l-.056-.055v-.348l.056-.042a7.315,7.315,0,0,0,.864-.069.641.641,0,0,0,.289-.108.549.549,0,0,0,.118-.282,6.412,6.412,0,0,0,.052-.961l.007-1.469v-3.224l-.014-1.357c0-.53-.018-.87-.038-1.024a.63.63,0,0,0-.1-.306.506.506,0,0,0-.254-.126,6.011,6.011,0,0,0-.926-.076l-.056-.049v-.349l.056-.049.87.028q.856.028,1.121.028.236,0,2-.056l.056.049v.349l-.056.049q-.48.014-.742.042a.9.9,0,0,0-.38.1.494.494,0,0,0-.157.359,6.2,6.2,0,0,0-.038.783l-.014,1.6Z" transform="translate(-395.265 -1348.597)"/>
        <path id="Path_20236" data-name="Path 20236" d="M452.187,1348.848l.056-.049q2.388.042,3.056.042,2.284,0,4.066-.042l.035.049a11.885,11.885,0,0,0-.258,2.1l-.042.055h-.341l-.062-.055c0-.042.006-.079.006-.112a6.757,6.757,0,0,0-.091-1.128,3.789,3.789,0,0,0-1.215-.254q-.776-.059-1.166-.059-.55,0-1.406.077l-.028,1.114-.021,1.274-.021,1.413q.752.042,1.385.042t1.072-.042a1.8,1.8,0,0,0,.5-.087.292.292,0,0,0,.111-.174,2.632,2.632,0,0,0,.066-.457l.028-.431.055-.056h.32l.055.056q-.014.759-.035,1.525l.035,1.566-.055.056h-.32l-.055-.056-.049-.417a5.863,5.863,0,0,0-.091-.582.307.307,0,0,0-.129-.164,1.389,1.389,0,0,0-.519-.111q-.418-.042-1.149-.042-.4,0-1.232.035-.035.585-.035,1.95,0,1.462.035,2.151h1.281q1.692,0,2.117-.041a2.788,2.788,0,0,0,.808-.2q.062-.16.205-.741t.164-.728l.07-.049h.334l.055.049a9.528,9.528,0,0,0-.122,1.045q-.06.745-.06,1.274l-.049.055q-1.33-.041-3.482-.042l-1.894-.014q-.661,0-1.379.055l-.055-.055v-.23l.055-.069a3.718,3.718,0,0,0,.47-.262,5.428,5.428,0,0,0,.1-1.219q.038-1.166.038-1.779v-2.555l-.007-1.581c0-.344-.005-.624-.014-.839a2.611,2.611,0,0,0-.049-.463.521.521,0,0,0-.08-.2.338.338,0,0,0-.146-.094,1.576,1.576,0,0,0-.345-.067l-.529-.042-.056-.049Z" transform="translate(-407.486 -1348.597)"/>
        <path id="Path_20237" data-name="Path 20237" d="M478.649,1348.8l.063.063q-.063.627-.063,2.187l-.055.055h-.327l-.055-.062-.077-.641a6.09,6.09,0,0,0-.087-.63.3.3,0,0,0-.1-.167,1.251,1.251,0,0,0-.453-.088q-.383-.034-.857-.035h-1.316q-.055,1.573-.055,1.817v4.059l.014,1.357q.007.788.038,1.021a.618.618,0,0,0,.1.306.548.548,0,0,0,.254.125,5.536,5.536,0,0,0,.933.08l.049.042v.348l-.049.055q-1.782-.055-1.991-.055t-1.985.055l-.056-.055v-.348l.056-.042a7.256,7.256,0,0,0,.867-.069.634.634,0,0,0,.285-.108.562.562,0,0,0,.122-.282,5.629,5.629,0,0,0,.049-.961l.014-1.469V1351.3q0-.112-.055-1.817H472.87q-.64,0-1.107.028t-.539.143a2.526,2.526,0,0,0-.136.749l-.069.641-.063.063h-.32l-.055-.055q-.014-1.678-.062-2.187l.062-.063q1.211.056,4.032.056Q477.487,1348.855,478.649,1348.8Z" transform="translate(-417.342 -1348.597)"/>
        <path id="Path_20238" data-name="Path 20238" d="M489.655,1348.8l.871.028q.856.028,1.121.028.236,0,2-.056l.055.049v.349l-.055.049q-.481.014-.742.042a.9.9,0,0,0-.38.1.5.5,0,0,0-.157.359,6.2,6.2,0,0,0-.038.783l-.014,1.6v3.224l.007,1.357a9.492,9.492,0,0,0,.042,1.017.652.652,0,0,0,.1.307.527.527,0,0,0,.254.128,5.481,5.481,0,0,0,.926.08l.055.042v.348l-.055.055q-.035,0-1.226-.042-.5-.014-.773-.014-.216,0-1.992.055l-.055-.055v-.348l.055-.042a7.314,7.314,0,0,0,.864-.069.641.641,0,0,0,.289-.108.549.549,0,0,0,.118-.282,6.416,6.416,0,0,0,.052-.961l.007-1.469v-3.224l-.014-1.357c0-.53-.018-.87-.038-1.024a.63.63,0,0,0-.1-.306.5.5,0,0,0-.254-.126,6.01,6.01,0,0,0-.926-.076l-.055-.049v-.349Z" transform="translate(-427.603 -1348.597)"/>
        <path id="Path_20239" data-name="Path 20239" d="M500.08,1358.712l-.063-.063v-.32l.063-.056a4.821,4.821,0,0,0,.679-.048.51.51,0,0,0,.327-.139.652.652,0,0,0,.1-.313q.024-.216.049-.975t.025-1.086v-5.626a.871.871,0,0,0-.129-.526.567.567,0,0,0-.351-.216,4.729,4.729,0,0,0-.759-.052l-.056-.056v-.327l.056-.063q.961.035,1.26.035.7,0,1.156-.035l2.221,2.883,3.266,4.094q.592.745,1.2,1.414v-5.389q0-.25-.025-1.068t-.059-1.037a.5.5,0,0,0-.122-.3.682.682,0,0,0-.327-.115,4.872,4.872,0,0,0-.651-.046l-.055-.055v-.32l.055-.063q.564.035,1.608.035.954,0,1.385-.035l.063.063v.32l-.056.055a4.657,4.657,0,0,0-.71.053.446.446,0,0,0-.313.15.786.786,0,0,0-.087.306c-.016.135-.032.455-.049.961s-.024.87-.024,1.093v3.308l.007,1.915q.014.94.028,1.887a11.188,11.188,0,0,0-1.2-.293l-.495-.585-1.483-1.81-4.72-5.9v5.341q0,.32.025,1.142a9.2,9.2,0,0,0,.059,1,.57.57,0,0,0,.091.24.533.533,0,0,0,.24.122,3.394,3.394,0,0,0,.762.062l.056.056v.327l-.056.056a9.749,9.749,0,0,0-1.17-.049Q500.859,1358.663,500.08,1358.712Z" transform="translate(-433.174 -1348.622)"/>
        <path id="Path_20240" data-name="Path 20240" d="M535.807,1354.609v.208l-.028.083-.341.2a.417.417,0,0,0-.146.118,2.344,2.344,0,0,0-.052.414q-.031.373-.031.909a12.252,12.252,0,0,0,.077,1.316l-.042.07a10.868,10.868,0,0,1-3.92.731,6.49,6.49,0,0,1-2.792-.585,4.627,4.627,0,0,1-1.977-1.734,4.98,4.98,0,0,1-.731-2.73,4.8,4.8,0,0,1,1.647-3.83,6.351,6.351,0,0,1,4.3-1.42,8.864,8.864,0,0,1,3.5.661l.049.077a16.787,16.787,0,0,0-.293,1.957l-.056.049h-.32l-.055-.056-.035-.737a2.249,2.249,0,0,0-.046-.425.492.492,0,0,0-.149-.164,3.487,3.487,0,0,0-.644-.32,5.24,5.24,0,0,0-1.041-.321,5.973,5.973,0,0,0-1.121-.1,4.682,4.682,0,0,0-2.256.529,3.423,3.423,0,0,0-1.48,1.542,5.044,5.044,0,0,0-.5,2.252,5.385,5.385,0,0,0,.536,2.385,4.063,4.063,0,0,0,1.539,1.724,4.343,4.343,0,0,0,2.332.62,6.28,6.28,0,0,0,1.181-.115,3.519,3.519,0,0,0,.992-.324,4.074,4.074,0,0,0,.062-.9v-.773a1.961,1.961,0,0,0-.07-.686.467.467,0,0,0-.344-.191,8.4,8.4,0,0,0-1.187-.07l-.062-.062v-.306l.062-.063.425.014q1.093.035,1.782.035.4,0,1.163-.042Z" transform="translate(-447.08 -1348.363)"/>
      </g>
      <g id="Group_20751" data-name="Group 20751" transform="translate(333.873 1326.063)">
        <path id="Path_20241" data-name="Path 20241" d="M343.092,1394.242l-.264.647a7.171,7.171,0,0,1-3.3.787,5.834,5.834,0,0,1-4.083-1.427,4.805,4.805,0,0,1-1.57-3.732,4.924,4.924,0,0,1,.783-2.775,4.858,4.858,0,0,1,2.068-1.776,6.861,6.861,0,0,1,2.886-.588,8.682,8.682,0,0,1,1.831.2,7.7,7.7,0,0,1,1.511.466l.049.07a8.886,8.886,0,0,0-.3,1.929l-.049.055h-.327l-.056-.055-.069-1.184a3.772,3.772,0,0,0-1.229-.63,4.981,4.981,0,0,0-1.5-.226,4.361,4.361,0,0,0-2.109.5,3.517,3.517,0,0,0-1.448,1.462,4.889,4.889,0,0,0-.515,2.343,4.8,4.8,0,0,0,.606,2.444,4.141,4.141,0,0,0,1.654,1.615,5.083,5.083,0,0,0,2.447.564,5.842,5.842,0,0,0,1.191-.118,4.472,4.472,0,0,0,.95-.293,4.293,4.293,0,0,0,.728-.424Z" transform="translate(-333.873 -1385.371)"/>
        <path id="Path_20242" data-name="Path 20242" d="M355.4,1390.63a6.184,6.184,0,0,1,.3-1.95,4.52,4.52,0,0,1,1.02-1.674,4.934,4.934,0,0,1,1.737-1.19,5.949,5.949,0,0,1,2.3-.421,5.369,5.369,0,0,1,3.781,1.292,4.549,4.549,0,0,1,1.407,3.526,5.77,5.77,0,0,1-.689,2.827,4.821,4.821,0,0,1-1.974,1.949,5.96,5.96,0,0,1-2.886.7,5.607,5.607,0,0,1-2.089-.38,4.258,4.258,0,0,1-1.625-1.131,4.6,4.6,0,0,1-.975-1.741A6.2,6.2,0,0,1,355.4,1390.63Zm1.448-.459a6.766,6.766,0,0,0,.275,1.827,4.792,4.792,0,0,0,.822,1.678,3.543,3.543,0,0,0,1.26,1.041,4.009,4.009,0,0,0,3.548-.153,3.105,3.105,0,0,0,1.281-1.535,5.958,5.958,0,0,0,.439-2.336,6.234,6.234,0,0,0-.5-2.541,3.365,3.365,0,0,0-1.428-1.65,4.153,4.153,0,0,0-2.054-.515,3.447,3.447,0,0,0-2.667,1.058A4.465,4.465,0,0,0,356.844,1390.17Z" transform="translate(-345.446 -1385.38)"/>
        <path id="Path_20243" data-name="Path 20243" d="M379.778,1395.726l-.063-.063v-.32l.063-.056a4.8,4.8,0,0,0,.679-.049.511.511,0,0,0,.327-.139.653.653,0,0,0,.1-.313q.024-.216.049-.974t.024-1.086V1387.1a.875.875,0,0,0-.129-.526.565.565,0,0,0-.352-.216,4.669,4.669,0,0,0-.759-.052l-.055-.056v-.327l.055-.063q.961.035,1.26.035.7,0,1.156-.035l2.221,2.883,3.265,4.094q.592.746,1.2,1.414v-5.389q0-.251-.025-1.069t-.059-1.037a.5.5,0,0,0-.122-.3.681.681,0,0,0-.327-.115,4.894,4.894,0,0,0-.651-.045l-.056-.056v-.32l.056-.063q.564.035,1.608.035.954,0,1.385-.035l.063.063v.32l-.055.056a4.608,4.608,0,0,0-.711.052.446.446,0,0,0-.313.15.784.784,0,0,0-.087.306q-.024.2-.049.961t-.024,1.093v3.307l.007,1.914q.014.94.028,1.887a11.3,11.3,0,0,0-1.2-.292l-.495-.585-1.483-1.81-4.72-5.9v5.341q0,.32.025,1.142a9.022,9.022,0,0,0,.059,1,.559.559,0,0,0,.09.24.53.53,0,0,0,.24.122,3.412,3.412,0,0,0,.762.063l.056.056v.327l-.056.056a9.843,9.843,0,0,0-1.17-.049Q380.558,1395.678,379.778,1395.726Z" transform="translate(-358.493 -1385.63)"/>
        <path id="Path_20244" data-name="Path 20244" d="M405.624,1393.015l.056-.056h.341l.056.056a6.446,6.446,0,0,0,.094,1.089.892.892,0,0,0,.376.418,2.705,2.705,0,0,0,.842.358,4.12,4.12,0,0,0,1.062.139,3.128,3.128,0,0,0,1.326-.271,2.077,2.077,0,0,0,.916-.8,2.185,2.185,0,0,0,.327-1.18,1.9,1.9,0,0,0-.156-.8,1.369,1.369,0,0,0-.439-.547,1.99,1.99,0,0,0-.644-.306,10.968,10.968,0,0,0-1.079-.22q-.7-.111-1.09-.2a3.741,3.741,0,0,1-.783-.278,2.09,2.09,0,0,1-.651-.477,2.179,2.179,0,0,1-.417-.711,2.563,2.563,0,0,1-.157-.9,2.769,2.769,0,0,1,.905-2.134,3.45,3.45,0,0,1,2.43-.832,6.451,6.451,0,0,1,1.32.15,5.339,5.339,0,0,1,1.3.443l.049.083a9.5,9.5,0,0,0-.188,1.825l-.062.056h-.362l-.055-.049q-.014-.836-.042-1.051t-.633-.536a2.773,2.773,0,0,0-1.316-.321,2.614,2.614,0,0,0-1.107.237,1.616,1.616,0,0,0-.78.745,2.221,2.221,0,0,0-.265,1.037,1.59,1.59,0,0,0,.16.728,1.366,1.366,0,0,0,.414.5,1.781,1.781,0,0,0,.592.275q.338.091,1.236.223a7.336,7.336,0,0,1,1.793.421,2,2,0,0,1,.9.783,2.382,2.382,0,0,1,.337,1.295,3.069,3.069,0,0,1-1.208,2.472,4.475,4.475,0,0,1-2.928.988,5.84,5.84,0,0,1-2.528-.515l-.042-.09A20.491,20.491,0,0,0,405.624,1393.015Z" transform="translate(-372.398 -1385.363)"/>
        <path id="Path_20245" data-name="Path 20245" d="M421.2,1385.863l.056-.049q1.727.057,1.991.056.237,0,2-.056l.056.049v.349l-.056.049q-.481.014-.742.042a.9.9,0,0,0-.38.1.491.491,0,0,0-.156.359,6.094,6.094,0,0,0-.038.783l-.014,1.6v2.214q0,1.094.045,1.605a2.854,2.854,0,0,0,.2.864,1.59,1.59,0,0,0,.456.606,2.371,2.371,0,0,0,.877.414,4.783,4.783,0,0,0,1.3.16,4.681,4.681,0,0,0,1.431-.212,2.175,2.175,0,0,0,1.013-.616,2.116,2.116,0,0,0,.456-1.062,11.925,11.925,0,0,0,.108-1.828v-2.145q0-.543-.017-1.493a4.779,4.779,0,0,0-.084-1.093.436.436,0,0,0-.244-.216,3.856,3.856,0,0,0-.985-.087l-.056-.056v-.327l.056-.063q1.03.057,1.65.056.529,0,1.643-.056l.062.056v.334l-.062.056a6.5,6.5,0,0,0-.853.052.557.557,0,0,0-.278.115.473.473,0,0,0-.118.236,6.54,6.54,0,0,0-.052.92l-.021,1.566v2.117a15.894,15.894,0,0,1-.1,2,2.626,2.626,0,0,1-.435,1.2,3.226,3.226,0,0,1-.8.787,3.517,3.517,0,0,1-1.187.488,6.546,6.546,0,0,1-1.5.171,6.256,6.256,0,0,1-1.723-.215,3.276,3.276,0,0,1-1.18-.571,2.247,2.247,0,0,1-.62-.748,2.816,2.816,0,0,1-.244-.926q-.055-.532-.055-1.626v-2.674l-.014-1.357q-.008-.795-.039-1.024a.626.626,0,0,0-.1-.306.507.507,0,0,0-.254-.126,5.988,5.988,0,0,0-.926-.076l-.056-.049Z" transform="translate(-380.829 -1385.605)"/>
        <path id="Path_20246" data-name="Path 20246" d="M445.3,1385.863l.056-.049q1.727.057,1.992.056.236,0,2-.056l.055.049v.349l-.055.049q-.481.014-.742.042a.893.893,0,0,0-.379.1.493.493,0,0,0-.157.359,6.19,6.19,0,0,0-.038.783l-.014,1.6v3.078q0,1.156.014,1.615l.035,1.2h1.421q1.7,0,2.12-.042a2.862,2.862,0,0,0,.811-.2,5.658,5.658,0,0,0,.22-.8c.1-.418.145-.659.15-.724l.062-.056h.341l.049.056a10.552,10.552,0,0,0-.115,1.079q-.059.8-.059,1.3l-.055.055q-1.324-.042-3.475-.042l-2.033-.014q-.7,0-1.421.055l-.055-.055v-.23l.055-.07a2.9,2.9,0,0,0,.474-.272,4.483,4.483,0,0,0,.087-.9q.045-.85.045-2.047v-2.987l-.014-1.357q-.008-.795-.038-1.024a.63.63,0,0,0-.1-.306.508.508,0,0,0-.254-.126,5.988,5.988,0,0,0-.926-.076l-.056-.049Z" transform="translate(-393.786 -1385.605)"/>
        <path id="Path_20247" data-name="Path 20247" d="M470.822,1385.814l.062.063q-.062.627-.062,2.187l-.056.056h-.327l-.055-.062-.077-.641a6.1,6.1,0,0,0-.087-.63.3.3,0,0,0-.1-.167,1.246,1.246,0,0,0-.453-.087q-.383-.035-.856-.035h-1.316q-.056,1.574-.056,1.817v4.059l.014,1.357q.007.787.038,1.02a.611.611,0,0,0,.1.307.544.544,0,0,0,.254.125,5.585,5.585,0,0,0,.933.08l.049.042v.348l-.049.055q-1.783-.056-1.992-.055t-1.985.055l-.055-.055v-.348l.055-.042a7.227,7.227,0,0,0,.867-.069.63.63,0,0,0,.285-.108.566.566,0,0,0,.122-.282,5.7,5.7,0,0,0,.049-.961l.014-1.469v-4.059q0-.111-.056-1.817h-1.037q-.641,0-1.107.028t-.54.142a2.493,2.493,0,0,0-.136.748l-.07.641-.062.062h-.32l-.055-.056q-.015-1.678-.063-2.187l.063-.063q1.211.057,4.031.056Q469.659,1385.87,470.822,1385.814Z" transform="translate(-403.138 -1385.605)"/>
        <path id="Path_20248" data-name="Path 20248" d="M479.65,1395.6l-.063-.056v-.362l.063-.056a2.929,2.929,0,0,0,.655-.052.554.554,0,0,0,.261-.181,5.708,5.708,0,0,0,.463-.887l.731-1.588,1.894-4.289q.536-1.261,1.065-2.521h.453l2.973,6.991.4.933q.174.4.4.863a2.656,2.656,0,0,0,.313.551.586.586,0,0,0,.216.128,2.265,2.265,0,0,0,.574.052l.056.056v.362l-.056.056q-.738-.062-1.33-.062-1.156.034-2.311.062l-.056-.056v-.362l.056-.056a5.626,5.626,0,0,0,.975-.066.232.232,0,0,0,.2-.24,1.2,1.2,0,0,0-.1-.4l-.857-2.123h-4.031l-.759,1.782a2.1,2.1,0,0,0-.2.7.273.273,0,0,0,.188.258,3.153,3.153,0,0,0,.947.091l.063.056v.362l-.056.056q-.9-.055-1.574-.056Q480.43,1395.54,479.65,1395.6Zm3.175-3.906h3.523l-1.747-4.2Z" transform="translate(-412.224 -1385.493)"/>
        <path id="Path_20249" data-name="Path 20249" d="M503.909,1395.726l-.062-.063v-.32l.062-.056a4.807,4.807,0,0,0,.679-.049.513.513,0,0,0,.327-.139.664.664,0,0,0,.1-.313q.024-.216.049-.974t.025-1.086V1387.1a.872.872,0,0,0-.129-.526.564.564,0,0,0-.352-.216,4.664,4.664,0,0,0-.759-.052l-.056-.056v-.327l.056-.063q.96.035,1.26.035.7,0,1.156-.035l2.221,2.883,3.265,4.094q.592.746,1.2,1.414v-5.389q0-.251-.024-1.069t-.06-1.037a.5.5,0,0,0-.122-.3.682.682,0,0,0-.327-.115,4.893,4.893,0,0,0-.651-.045l-.056-.056v-.32l.056-.063q.564.035,1.608.035.954,0,1.385-.035l.063.063v.32l-.056.056a4.6,4.6,0,0,0-.71.052.447.447,0,0,0-.313.15.793.793,0,0,0-.087.306q-.025.2-.049.961t-.024,1.093v3.307l.007,1.914q.014.94.028,1.887a11.27,11.27,0,0,0-1.2-.292l-.494-.585-1.483-1.81-4.721-5.9v5.341q0,.32.025,1.142a9.137,9.137,0,0,0,.059,1,.552.552,0,0,0,.091.24.525.525,0,0,0,.24.122,3.414,3.414,0,0,0,.763.063l.055.056v.327l-.055.056a9.854,9.854,0,0,0-1.17-.049Q504.689,1395.678,503.909,1395.726Z" transform="translate(-425.239 -1385.63)"/>
        <path id="Path_20250" data-name="Path 20250" d="M538.976,1394.242l-.264.647a7.171,7.171,0,0,1-3.3.787,5.835,5.835,0,0,1-4.084-1.427,4.806,4.806,0,0,1-1.57-3.732,4.925,4.925,0,0,1,.783-2.775,4.86,4.86,0,0,1,2.068-1.776,6.864,6.864,0,0,1,2.886-.588,8.675,8.675,0,0,1,1.831.2,7.7,7.7,0,0,1,1.511.466l.049.07a8.893,8.893,0,0,0-.3,1.929l-.049.055h-.327l-.056-.055-.069-1.184a3.776,3.776,0,0,0-1.229-.63,4.981,4.981,0,0,0-1.5-.226,4.359,4.359,0,0,0-2.109.5,3.516,3.516,0,0,0-1.448,1.462,4.888,4.888,0,0,0-.516,2.343,4.8,4.8,0,0,0,.606,2.444,4.14,4.14,0,0,0,1.654,1.615,5.083,5.083,0,0,0,2.447.564,5.838,5.838,0,0,0,1.19-.118,4.467,4.467,0,0,0,.95-.293,4.268,4.268,0,0,0,.728-.424Z" transform="translate(-439.201 -1385.371)"/>
        <path id="Path_20251" data-name="Path 20251" d="M550.71,1386.364l-.063-.062v-.292l.063-.063,1.97-.327a2.381,2.381,0,0,1,.407.369,6.891,6.891,0,0,1,.578.832q.379.609.978,1.7t1.149,2.182l.71-1.128.8-1.337,1.476-2.528a5.117,5.117,0,0,0,.529.028q.16,0,.487-.028l.056.056v.132q-.348.382-1.079,1.389t-1.09,1.573q-.359.567-.881,1.428a7.377,7.377,0,0,0-.571,1.034,1.541,1.541,0,0,0-.049.411v1.023l.007,1.044a6.758,6.758,0,0,0,.045.846.658.658,0,0,0,.1.313.516.516,0,0,0,.251.122,5.905,5.905,0,0,0,.923.076l.055.042v.348l-.055.056q-.035,0-1.226-.042c-.33-.01-.587-.014-.773-.014q-.223,0-1.992.056l-.055-.056v-.348l.055-.042a7.177,7.177,0,0,0,.87-.069.627.627,0,0,0,.282-.108.5.5,0,0,0,.115-.258,4.782,4.782,0,0,0,.049-.784l.014-1.19v-1.323a18.624,18.624,0,0,0-1.023-1.8l-.613-1q-.293-.474-.735-1.1a5.968,5.968,0,0,0-.686-.856,1.149,1.149,0,0,0-.376-.265A3.734,3.734,0,0,0,550.71,1386.364Z" transform="translate(-450.434 -1385.501)"/>
      </g>
      <g id="Group_20752" data-name="Group 20752" transform="translate(341.475 1280.674)">
        <rect id="Rectangle_2641" data-name="Rectangle 2641" width="33.646" height="0.55" transform="translate(0 0)"/>
      </g>
      <g id="Group_20757" data-name="Group 20757" transform="translate(334.07 1275.08)">
        <g id="Group_20753" data-name="Group 20753" transform="translate(0 71.583)">
          <rect id="Rectangle_2642" data-name="Rectangle 2642" width="111.027" height="0.55"/>
        </g>
        <g id="Group_20754" data-name="Group 20754" transform="translate(47.354)">
          <path id="Path_20252" data-name="Path 20252" d="M446.282,1278.059H445.8c0-.256,0-.493,0-.73a1.272,1.272,0,0,0-.873-1.261,5.363,5.363,0,0,0-2.367-.319,4.981,4.981,0,0,0-1.586.291,3.647,3.647,0,0,0-1.99,1.845,5.606,5.606,0,0,0-.511,2.983,4.74,4.74,0,0,0,.892,2.614,4.436,4.436,0,0,0,2.555,1.735,6.032,6.032,0,0,0,3.763-.2,8.144,8.144,0,0,0,.809-.431,1.086,1.086,0,0,1,.132-.048l.123.17a2.219,2.219,0,0,1-.277.637,1.6,1.6,0,0,1-.594.344,7.8,7.8,0,0,1-4.015.516,5.965,5.965,0,0,1-3.466-1.522,5.081,5.081,0,0,1-1.462-2.472,6.066,6.066,0,0,1-.074-2.759,5.023,5.023,0,0,1,1.127-2.317,5.436,5.436,0,0,1,2.664-1.721,7.782,7.782,0,0,1,3.361-.252c.849.128,1.684.344,2.525.525a.539.539,0,0,1,.136.062c-.131.786-.257,1.542-.385,2.31" transform="translate(-436.731 -1275.08)"/>
        </g>
        <g id="Group_20755" data-name="Group 20755" transform="translate(50.879 2.049)">
          <path id="Path_20253" data-name="Path 20253" d="M444.9,1281.438h-.28c-.088-.5-.174-.983-.265-1.5.141-.041.291-.086.442-.128a6.42,6.42,0,0,1,2.987-.208,3.427,3.427,0,0,1,2.858,2.383,3.5,3.5,0,0,1-1.89,4.412,5.135,5.135,0,0,1-1.35.338,4.758,4.758,0,0,1-2.688-.4.662.662,0,0,1-.36-.684,2.743,2.743,0,0,1,.267.1,3.593,3.593,0,0,0,3.747-.092,2.812,2.812,0,0,0,1.287-2.12,3.483,3.483,0,0,0-.52-2.556,2.282,2.282,0,0,0-1.619-.979,4.268,4.268,0,0,0-1.783.077.913.913,0,0,0-.782.938,2.387,2.387,0,0,1-.052.416" transform="translate(-444.356 -1279.512)"/>
        </g>
        <g id="Group_20756" data-name="Group 20756" transform="translate(51.504 4.153)">
          <path id="Path_20254" data-name="Path 20254" d="M445.708,1286.964l.4-.135V1284.3c-.137-.046-.251-.083-.363-.125-.011,0-.011-.039-.024-.1h.863l1.081,2.236.064.007,1.077-2.256h.858c-.012.271-.274.092-.374.226v2.533l.393.149-.023.081h-1.22c.012-.091.018-.095.346-.231v-2.01l-.045-.019-1.1,2.318-.085.009-1.1-2.274-.037.007v1.968l.379.148-.021.082h-1.031l-.029-.088" transform="translate(-445.708 -1284.064)"/>
        </g>
      </g>
      <g id="Group_20758" data-name="Group 20758" transform="translate(396.512 1280.674)">
        <rect id="Rectangle_2643" data-name="Rectangle 2643" width="38.658" height="0.55" transform="translate(0 0)"/>
      </g>
    </g>
  </g>
</svg>
