<svg xmlns="http://www.w3.org/2000/svg" width="144" height="70.968" viewBox="0 0 144 70.968">
  <g id="Group_20685" data-name="Group 20685" transform="translate(-208.953 -340.351)">
    <g id="Group_20684" data-name="Group 20684" transform="translate(211.37 340.351)">
      <path id="Path_20180" data-name="Path 20180" d="M270.366,340.351h-2.785L255.3,370.258h2.964l10.706-26.225,10.662,26.225H282.6Z" transform="translate(-220.988 -340.351)" fill="#3e3e3e"/>
      <g id="Group_20683" data-name="Group 20683" transform="translate(61.583 11.198)">
        <path id="Path_20181" data-name="Path 20181" d="M295.009,373.891c.909-3.866,2.293-9.191,3.321-13.216a8.061,8.061,0,0,1,1.621-.236c2.768,0,3.44,1.223,3.44,3.787,0,4.773-3.084,10.81-6.129,10.81a2.94,2.94,0,0,1-2.253-1.144m.909-16.293a17.618,17.618,0,0,1-.514,2.722c-.91.395-1.779.829-2.61,1.262-.475.237-.672.395-.672.789a4.648,4.648,0,0,0,.158,1.026,27.718,27.718,0,0,1,2.729-1.42l-1.938,8.166c-1.621,6.785-3.361,14.36-3.361,16.925a1.376,1.376,0,0,0,.514,1.144,16.634,16.634,0,0,1,6.682-1.658c0-1.1-.158-1.419-.91-1.419a16.375,16.375,0,0,0-3.242.591,56.354,56.354,0,0,1,1.858-10.138,3.524,3.524,0,0,0,2.136.789c5.5,0,10-7.179,10-13.1a4.418,4.418,0,0,0-4.706-4.773,13.561,13.561,0,0,0-3.321.552,33.6,33.6,0,0,0,.869-3.985c0-.434-.237-.592-1.067-.592-1.661,0-5.892.987-5.892,1.894a1.134,1.134,0,0,0,.238.67,7.3,7.3,0,0,1,2.056-.394c.752,0,.989.394.989.946" transform="translate(-289.71 -354.481)" fill="#3e3e3e"/>
      </g>
      <path id="Path_20182" data-name="Path 20182" d="M239.905,340.351l-12.175,31.61-12.125-31.61H212v29.925h2.637V345.066l11.693,30.13h2.794l11.742-30.148v25.209h2.638V340.351Z" transform="translate(-212.003 -340.351)" fill="#3e3e3e"/>
    </g>
    <text id="boutique_consultancy" data-name="boutique consultancy" transform="translate(208.953 407.319)" fill="#3e3e3e" font-size="15" font-family="SegoeUI, Segoe UI"><tspan x="0" y="0" letter-spacing="0.008em">b</tspan><tspan y="0" letter-spacing="0.01em">o</tspan><tspan y="0" letter-spacing="0.003em">u</tspan><tspan y="0" letter-spacing="-0.006em">t</tspan><tspan y="0" letter-spacing="0.005em">i</tspan><tspan y="0" letter-spacing="0.012em">q</tspan><tspan y="0" letter-spacing="0.009em">ue</tspan><tspan y="0" letter-spacing="0.01em"> </tspan><tspan y="0" letter-spacing="0.003em">c</tspan><tspan y="0" letter-spacing="0.008em">o</tspan><tspan y="0" letter-spacing="0.006em">ns</tspan><tspan y="0" letter-spacing="0.007em">u</tspan><tspan y="0" letter-spacing="0.003em">l</tspan><tspan y="0" letter-spacing="-0.021em">t</tspan><tspan y="0" letter-spacing="0.008em">a</tspan><tspan y="0" letter-spacing="0.012em">n</tspan><tspan y="0" letter-spacing="0.006em">c</tspan><tspan y="0">y</tspan></text>
  </g>
</svg>
