<svg xmlns="http://www.w3.org/2000/svg" width="134.475" height="53.076" viewBox="0 0 134.475 53.076">
  <g id="Group_20761" data-name="Group 20761" transform="translate(328.191 25.984)">
    <path id="Path_20255" data-name="Path 20255" d="M490.131,163.011c0-1.506.006-3.013-.01-4.519,0-.347.078-.487.463-.515,3.721-.267,6.077-2.339,7.449-5.682a1.871,1.871,0,0,0,.162-.6c.073-1.56.13-3.121.2-4.81-.228.142-.348.207-.459.286a13.208,13.208,0,1,1,5.328-11.906c.178,1.88.125,3.785.127,5.679,0,3.117.034,6.236-.07,9.351a12.267,12.267,0,0,1-6.771,10.983,14.83,14.83,0,0,1-5,1.631c-.145.021-.286.07-.429.106Zm-.063-18.133a8.367,8.367,0,1,0-8.349-8.4A8.347,8.347,0,0,0,490.068,144.878Z" transform="translate(-732.885 -135.919)"/>
    <path id="Path_20256" data-name="Path 20256" d="M900.656,136.5l-.271,1.427a8.379,8.379,0,0,0-10.747,10.526c-.176.044-.315.091-.458.112a13.338,13.338,0,1,1,11.374-14.869c.02.161.068.318.1.476Zm-5.452-3.8c-.615-3.319-4.862-6.062-8.757-5.683a8.423,8.423,0,0,0-7.55,8.412c.085,3.549,3.011,7.593,5.617,7.742A13.405,13.405,0,0,1,895.2,132.7Z" transform="translate(-1094.372 -134.733)"/>
    <path id="Path_20257" data-name="Path 20257" d="M-328.191,8.848A8.27,8.27,0,0,0-322.7,6.9,7.746,7.746,0,0,0-319.881.747c.053-8.574.03-17.149.042-25.723,0-1.022-.126-.878.874-.884,1.225-.008,2.45.01,3.674-.009.358-.005.458.116.458.462-.008,8.843.034,17.686-.021,26.529a12.987,12.987,0,0,1-10.2,12.35c-1.027.241-2.092.323-3.14.478Z" transform="translate(0 -0.104)"/>
    <path id="Path_20258" data-name="Path 20258" d="M160.164,141.347c0-2.118-.033-4.236.007-6.352a11.717,11.717,0,0,1,4.614-9.119,13.082,13.082,0,0,1,9.275-3.169c5.518.31,11.154,4.519,12.254,10.339a11.343,11.343,0,0,1,.21,2.043c.02,4.489.007,8.978.022,13.467,0,.438-.143.555-.566.547q-1.9-.037-3.809,0c-.418.008-.526-.128-.526-.535,0-3.952-.043-7.9-.028-11.857a9.191,9.191,0,0,0-1.222-4.743,7.861,7.861,0,0,0-10.29-3.523,8.13,8.13,0,0,0-4.96,7.365c-.168,4.185-.092,8.38-.12,12.57,0,.713,0,.713-.735.713h-3.5c-.646,0-.655,0-.656-.633q-.006-3.557,0-7.114Z" transform="translate(-444.549 -135.34)"/>
    <path id="Path_20259" data-name="Path 20259" d="M-156.928,131.106c0-2.371.009-4.742-.008-7.113,0-.444.164-.553.579-.545q1.882.033,3.764,0c.412-.007.533.128.532.537q-.009,4.989.021,9.978c0,.984.021,1.969.068,2.952A8.7,8.7,0,0,0-149.784,142a7.968,7.968,0,0,0,12.811-.985,8.991,8.991,0,0,0,1.493-4.888c-.009-4.012.041-8.023.066-12.035,0-.637,0-.639.647-.639,1.24,0,2.48.01,3.72-.006.363,0,.5.106.5.482-.012,4.608.059,9.217-.037,13.823a11.58,11.58,0,0,1-4.664,8.957,13.292,13.292,0,0,1-8.712,3.146c-6.044-.056-11.746-4.744-12.78-10.533a20.653,20.653,0,0,1-.215-3.208c-.034-1.67-.009-3.341-.009-5.011Z" transform="translate(-155.865 -136.035)"/>
    <path id="Path_20260" data-name="Path 20260" d="M799.95-6.063q0,9.639,0,19.279c0,.619,0,.62-.6.62-1.314,0-2.629-.017-3.943.01-.437.009-.551-.131-.55-.558q.019-8.409.009-16.819,0-10.914,0-21.828c0-.613,0-.614.6-.614,1.314,0,2.629.017,3.943-.01.435-.009.551.123.55.552Q799.939-15.747,799.95-6.063Z" transform="translate(-1022.364 0)"/>
    <path id="Path_20261" data-name="Path 20261" d="M1078.639,335.14a4.8,4.8,0,0,1-.284-2.636,5.267,5.267,0,0,1,6.7-4.2c.306.1.422.2.255.532a13.416,13.416,0,0,1-6.389,6.218A2.4,2.4,0,0,1,1078.639,335.14Z" transform="translate(-1280.39 -322.313)"/>
    <path id="Path_20262" data-name="Path 20262" d="M225.916,23.338c0,1.147-.025,2.159.011,3.17.017.5-.235.5-.6.508s-.605-.026-.594-.514c.032-1.4.021-2.8,0-4.2,0-.355.129-.428.463-.471a1.389,1.389,0,0,1,1.6.855c.449.885,1.009,1.714,1.521,2.566,0-.286,0-.585,0-.884,0-.6-.012-1.191-.014-1.787,0-.736.2-.9.935-.716a.4.4,0,0,1,.228.3c.015,1.5.007,3.009.013,4.513,0,.26-.123.338-.358.329a2.893,2.893,0,0,1-.623-.012.994.994,0,0,1-.561-.317c-.618-.984-1.2-1.991-1.791-2.99C226.094,23.6,226.037,23.523,225.916,23.338Z" transform="translate(-503.351 -43.495)"/>
    <path id="Path_20263" data-name="Path 20263" d="M484,24.381c0-.716.011-1.432,0-2.147-.007-.318.085-.459.428-.454,1.046.015.87-.049.877.849.009,1.159,0,1.166,1.148,1.157s.982.158,1-1c0-.06,0-.119,0-.179,0-.834.208-1.005,1.031-.806a.4.4,0,0,1,.232.3c.015,1.506.017,3.012,0,4.518a.449.449,0,0,1-.3.311c-.935.114-.957.085-.958-.839a7.183,7.183,0,0,0-.019-.982.456.456,0,0,0-.314-.3c-.491-.034-.985-.008-1.478-.017-.259,0-.337.121-.334.357.007.477-.008.955,0,1.431.006.264-.091.374-.365.371-1.125-.013-.922.094-.939-.868C484,25.515,484,24.948,484,24.381Z" transform="translate(-739.377 -43.436)"/>
    <path id="Path_20264" data-name="Path 20264" d="M-31.99,24.854c0-.7.013-1.4-.006-2.1-.009-.339.091-.482.453-.475,1.014.018.852-.041.858.823.008,1.186,0,1.191,1.206,1.184,1.061-.006.929.128.94-.918,0-.149,0-.3,0-.447,0-.636,0-.636.638-.636s.634,0,.635.639c0,1.356-.01,2.712.006,4.067,0,.349-.106.5-.46.458a1.025,1.025,0,0,0-.268,0c-.428.061-.592-.11-.558-.545.033-.415,0-.834.008-1.251.006-.268-.106-.372-.373-.365-.477.013-.955.01-1.433,0-.251,0-.346.105-.341.349.008.447-.014.894.005,1.341.014.331-.073.487-.446.475-1-.031-.854.1-.865-.856C-32,26.016-31.99,25.435-31.99,24.854Z" transform="translate(-269.641 -43.935)"/>
    <path id="Path_20265" data-name="Path 20265" d="M356.469,22.879c-.555-.038-1.059-.115-1.559-.1a1.6,1.6,0,0,0-1.677,1.866,1.715,1.715,0,0,0,2.13,1.449.393.393,0,0,0,.27-.227,1.259,1.259,0,0,0-.013-.7c-.063-.13-.35-.187-.545-.21-.325-.039-.27-.264-.273-.463s-.038-.442.288-.44c.507,0,1.016-.016,1.521.015a.413.413,0,0,1,.272.3q.036,1.071,0,2.145a.456.456,0,0,1-.271.327,5.52,5.52,0,0,1-2.875.069,2.374,2.374,0,0,1-1.853-2.107,2.485,2.485,0,0,1,1.3-2.546,4.566,4.566,0,0,1,3.226-.308c.21.045.316.147.231.379C356.571,22.517,356.519,22.715,356.469,22.879Z" transform="translate(-619.089 -43.494)"/>
    <path id="Path_20266" data-name="Path 20266" d="M99.307,27.419A9.012,9.012,0,0,1,98.2,27.4a.556.556,0,0,1-.354-.309c-.409-1.011-.4-1-1.492-1.011a.539.539,0,0,0-.635.452c-.26.926-.279.921-1.234.883-.088,0-.175-.02-.3-.036a2.819,2.819,0,0,1,.069-.35c.49-1.455.991-2.906,1.469-4.364a.521.521,0,0,1,.578-.417c1.251-.011,1.251-.021,1.656,1.158q.6,1.733,1.191,3.467C99.2,27.03,99.238,27.186,99.307,27.419ZM96.072,25.2H97.3l-.588-1.84-.1.007Z" transform="translate(-384.508 -43.911)"/>
    <path id="Path_20267" data-name="Path 20267" d="M615.06,27.418A10.873,10.873,0,0,1,613.9,27.4c-.114-.013-.254-.184-.3-.313-.4-1-.391-.993-1.5-1a.543.543,0,0,0-.631.46c-.264.924-.281.92-1.238.875-.087,0-.173-.025-.311-.045.042-.159.071-.3.116-.436.477-1.412.964-2.82,1.429-4.236a.547.547,0,0,1,.6-.45c1.23,0,1.231-.017,1.629,1.129q.615,1.774,1.224,3.55C614.969,27.071,615,27.213,615.06,27.418Zm-2.581-4.049-.113,0-.534,1.831h1.224Z" transform="translate(-854.012 -43.913)"/>
    <path id="Path_20268" data-name="Path 20268" d="M-145.933,22.6a5.663,5.663,0,0,0-.846-.17,2.421,2.421,0,0,0-.876.085.4.4,0,0,0-.071.761,6.6,6.6,0,0,0,.773.347A5.754,5.754,0,0,1-146,24.1a1.335,1.335,0,0,1,.057,2.154,3.628,3.628,0,0,1-3.214.275.335.335,0,0,1-.127-.277,6.009,6.009,0,0,1,.19-.685,10.842,10.842,0,0,0,1.126.225,2.142,2.142,0,0,0,.834-.077.59.59,0,0,0,.343-.4.635.635,0,0,0-.241-.473,3.169,3.169,0,0,0-.645-.3,6.533,6.533,0,0,1-1-.48,1.281,1.281,0,0,1,.046-2.2,3.267,3.267,0,0,1,2.724-.218c.08.021.166.223.155.331A3.509,3.509,0,0,1-145.933,22.6Z" transform="translate(-162.87 -43.182)"/>
    <path id="Path_20269" data-name="Path 20269" d="M742,24.792c0,.714-.011,1.427.005,2.141.008.339-.1.477-.458.468-.96-.024-.82.063-.825-.8-.007-1.279.012-2.557-.01-3.835-.007-.4.107-.587.524-.534a2.269,2.269,0,0,0,.4,0c.269-.015.368.111.365.374C742,23.335,742,24.064,742,24.792Z" transform="translate(-973.077 -43.883)"/>
  </g>
</svg>
