<svg xmlns="http://www.w3.org/2000/svg" xmlns:xlink="http://www.w3.org/1999/xlink" width="231.025" height="35.165" viewBox="0 0 231.025 35.165">
  <defs>
    <clipPath id="clip-path">
      <path id="Path_20223" data-name="Path 20223" d="M0-24.175H231.025V-59.34H0Z" transform="translate(0 59.34)"/>
    </clipPath>
  </defs>
  <g id="Group_20722" data-name="Group 20722" transform="translate(0 59.34)">
    <g id="Group_20721" data-name="Group 20721" transform="translate(0 -59.34)" clip-path="url(#clip-path)">
      <g id="Group_20710" data-name="Group 20710" transform="translate(202.406 0)">
        <path id="Path_20212" data-name="Path 20212" d="M-12.789-7.869A9.439,9.439,0,0,1-20.4-2.491l.021.195c1.017.074,2.035.208,3.052.2.679-.005.853.21.818.857a15.48,15.48,0,0,1-2.408,7.389,20.239,20.239,0,0,1-6.356,6.1c-.206.137-.405.284-.632.444l1.681,2.966-.151.191-7.018-2.791c.617-.528,1.178-.955,1.678-1.444C-26.471,8.453-24.518,4.71-24.743.07a12.836,12.836,0,0,0-3.232-7.881,15.891,15.891,0,0,1-1.682-2.229,3.109,3.109,0,0,1,.824-4.424,18.526,18.526,0,0,1,2.645-1.529,9.934,9.934,0,0,1,1.023-.381c.806-.322,1.5-.737,1.307-1.775.775-.088,1.339.215,1.28.888-.152,1.737.724,2.919,1.747,4.165A4.252,4.252,0,0,1-21.4-7.339a4.134,4.134,0,0,0-.374.4c1.711.322,6.195-1.229,7.6-2.629a3.884,3.884,0,0,0-2.085-.883c-.528-.084-.715-.3-.7-.844a1.363,1.363,0,0,0-.368-.858,2.227,2.227,0,0,1-.462-2.522A2.212,2.212,0,0,1-15.6-15.888a1.756,1.756,0,0,0,1.84-1.435,2.294,2.294,0,0,1,1.842-1.958,2.3,2.3,0,0,1,2.388,1.226,1.7,1.7,0,0,0,.626.517c.17.1.4.1.582.187a1.931,1.931,0,0,0,1.844.04,1.9,1.9,0,0,1,2.311.692A2.006,2.006,0,0,1-4.078-14.2a1.485,1.485,0,0,0-.2,1.253,2.784,2.784,0,0,0,1.016,2.007A1.743,1.743,0,0,1-2.95-8.9,1.978,1.978,0,0,1-4.687-7.546C-6.022-7.368-6.4-7-6.631-5.724A2.076,2.076,0,0,1-8.2-4.009a1.909,1.909,0,0,1-2.162-.623,1.23,1.23,0,0,0-1.083-.548c-.448.018-.535-.215-.589-.626-.093-.7-.3-1.375-.463-2.062h-.29m2.51-8.472a5.12,5.12,0,0,0-5.072,4.052c-.066.351-.059.571.351.73a6.614,6.614,0,0,1,4.142,4.5c.126.428.348.505.743.482a5.1,5.1,0,0,0,4.689-5.128,4.748,4.748,0,0,0-4.852-4.635" transform="translate(31.391 19.315)"/>
      </g>
      <g id="Group_20711" data-name="Group 20711" transform="translate(214.218 24.318)">
        <path id="Path_20213" data-name="Path 20213" d="M-7.972-3.687c-1.375,1.173-2.594,2.224-3.834,3.25a.58.58,0,0,1-.532.012c-2.383-1.47-4.754-2.959-7.126-4.448a.442.442,0,0,1-.1-.123l3.19-4.056c.1.114.27.286.423.471,1.276,1.545,2.562,3.082,3.813,4.646a.973.973,0,0,0,1.09.429,19.986,19.986,0,0,1,2.239-.235,7.019,7.019,0,0,1,.841.052" transform="translate(19.568 9.051)"/>
      </g>
      <g id="Group_20712" data-name="Group 20712" transform="translate(38.628 12.999)">
        <path id="Path_20214" data-name="Path 20214" d="M-6,0c.739,3.176,1.487,6.35,2.225,9.6H-5.955c-.295-1.3-.583-2.569-.9-3.979l-2.5,4.357S-11.238,6.305-11.587,5.6c-.065.007-.116.136-.181.143l-.917,3.853h-2.037A92.054,92.054,0,0,1-12.462.01a2.677,2.677,0,0,1,.285.369c.748,1.432,2.618,4.906,2.886,5.329L-6.187,0-6,0" transform="translate(14.723 0.005)"/>
      </g>
      <g id="Group_20713" data-name="Group 20713" transform="translate(80.76 12.798)">
        <path id="Path_20215" data-name="Path 20215" d="M-3.487-6.833A4.993,4.993,0,0,1-8.56-11.816a5.023,5.023,0,0,1,5.111-4.957A5.049,5.049,0,0,1,1.6-11.812,5.021,5.021,0,0,1-3.487-6.833m2.7-4.938a2.849,2.849,0,0,0-2.663-2.846,2.836,2.836,0,0,0-2.74,2.834,2.813,2.813,0,0,0,2.694,2.8A2.816,2.816,0,0,0-.786-11.771" transform="translate(8.56 16.773)"/>
      </g>
      <g id="Group_20714" data-name="Group 20714" transform="translate(159.472 12.876)">
        <path id="Path_20216" data-name="Path 20216" d="M-5.816-.12V9.547c-2.1-1.752-4.031-3.522-6.032-5.2L-12,4.415v4.99l-2.275.037V-.294l3.016,2.577L-8.333,4.79l.168-.075c.007-.806.016-1.612.019-2.418,0-.79,0-1.58,0-2.417Z" transform="translate(14.277 0.294)"/>
      </g>
      <g id="Group_20715" data-name="Group 20715" transform="translate(61.874 12.991)">
        <path id="Path_20217" data-name="Path 20217" d="M0-.006A17.441,17.441,0,0,1,4.583.282a2.247,2.247,0,0,1,1.7,2.282,2.065,2.065,0,0,1-.7,1.575l-.433.384c.144.113.244.2.348.272A2.508,2.508,0,0,1,6.55,7.242,2.266,2.266,0,0,1,4.9,9.222a5.024,5.024,0,0,1-.925.228,8.682,8.682,0,0,1-1.156.095c-.932.013-1.864,0-2.774,0ZM2.3,7.664a8.978,8.978,0,0,0,1.187-.09A.817.817,0,0,0,4.2,6.659.869.869,0,0,0,3.4,5.735a8.978,8.978,0,0,0-1.1-.008ZM2.279,3.779c.6.044,1.133.1,1.491-.405a.863.863,0,0,0,.022-1.026c-.366-.527-.908-.507-1.513-.395Z" transform="translate(0 0.014)"/>
      </g>
      <g id="Group_20716" data-name="Group 20716" transform="translate(124.326 13.006)">
        <path id="Path_20218" data-name="Path 20218" d="M-3.462-3.759-.859.36H-3.611C-3.971-.23-4.349-.876-4.752-1.5A8.307,8.307,0,0,0-6.032-3.336C-6.3-2.123-6.087-.9-6.236.363A12.55,12.55,0,0,1-8.5.388V-9.17a2.938,2.938,0,0,1,.462-.057q1.7.047,3.406.115A2.387,2.387,0,0,1-4.1-9a2.537,2.537,0,0,1,2.04,2.13A2.667,2.667,0,0,1-3.229-4.022a1.408,1.408,0,0,0-.156.129.821.821,0,0,0-.077.133M-6.135-5.183A1.562,1.562,0,0,0-4.448-5.7a1.322,1.322,0,0,0-.033-1.356A1.465,1.465,0,0,0-6.135-7.38Z" transform="translate(8.497 9.228)"/>
      </g>
      <g id="Group_20717" data-name="Group 20717" transform="translate(103.561 13.029)">
        <path id="Path_20219" data-name="Path 20219" d="M-.041,0h2.25c.022.274.06.535.062.8.006,1.547,0,3.095,0,4.642a5.955,5.955,0,0,0,.041.817,1.294,1.294,0,0,0,1.393,1.29,1.4,1.4,0,0,0,1.6-1.158A6.536,6.536,0,0,0,5.434,5.1c.014-1.434.006-2.867.006-4.3V.017H7.748c.017.241.05.481.05.722,0,1.729.01,3.458,0,5.188a3.458,3.458,0,0,1-3.551,3.75,7.38,7.38,0,0,1-2.157-.19A2.758,2.758,0,0,1-.05,7.019,4.217,4.217,0,0,1-.1,6.408q-.006-2.9,0-5.8C-.1.428-.066.251-.041,0" transform="translate(0.102)"/>
      </g>
      <g id="Group_20718" data-name="Group 20718" transform="translate(181.147 13.053)">
        <path id="Path_20220" data-name="Path 20220" d="M-1.617-1.356V.288h3.4l.028,2.006H-1.617V4.111h3.6V6.167c-2,.011-5.9,0-5.9,0l-.05-9.5H1.984v1.973Z" transform="translate(3.968 3.329)"/>
      </g>
      <g id="Group_20719" data-name="Group 20719" transform="translate(17.388 12.752)">
        <path id="Path_20221" data-name="Path 20221" d="M-6.777-6.778H-8.995C-9.14-7.06-9.749-8.264-9.917-8.6h-3.617l-.878,1.813h-2.222c1.619-3.352,3.24-6.586,4.87-9.85.39.429,4.693,8.947,4.987,9.86m-3.966-3.692-1.064-2.071s-.67,1.307-.96,2.071Z" transform="translate(16.634 16.638)"/>
      </g>
      <g id="Group_20720" data-name="Group 20720" transform="translate(0 13.064)">
        <path id="Path_20222" data-name="Path 20222" d="M-4.851-1.47H-7.073c-.053,2.491.01,4.914-.037,7.392h-2.4c-.02-.257.016-7.049,0-7.39h-2.4V-3.551l7.056-.057Z" transform="translate(11.907 3.608)"/>
      </g>
    </g>
    <path id="Path_20224" data-name="Path 20224" d="M245.182-27.749H242.9v-9.545h2.28Z" transform="translate(-98.957 -8.981)"/>
  </g>
</svg>
