<?xml version="1.0" encoding="UTF-8"?>
<svg id="SVGDoc" width="32" height="32" xmlns="http://www.w3.org/2000/svg" version="1.1" xmlns:xlink="http://www.w3.org/1999/xlink" xmlns:avocode="https://avocode.com/" viewBox="0 0 32 32"><defs></defs><desc>Generated with Avocode.</desc><g><g><title>linkedin</title><path d="M24.4375,25.375h-3.75v-7.5c0,-1.03369 -0.84131,-1.875 -1.875,-1.875c-1.03369,0 -1.875,0.84131 -1.875,1.875v7.5h-3.75v-13.125h3.75v0.70679c0.98243,-0.30542 1.62061,-0.70679 2.8125,-0.70679c2.54321,0.00269 4.6875,2.28418 4.6875,4.98047zM11.3125,10.375h-3.75v-3.75h3.75zM11.3125,25.375h-3.75v-13.125h3.75zM27.3125,0h-22.625c-2.58448,0 -4.6875,2.10302 -4.6875,4.6875v22.625c0,2.58447 2.10302,4.6875 4.6875,4.6875h22.625c2.58447,0 4.6875,-2.10303 4.6875,-4.6875v-22.625c0,-2.58448 -2.10303,-4.6875 -4.6875,-4.6875z" fill="#3e3e3e" fill-opacity="1"></path></g></g></svg>