<svg xmlns="http://www.w3.org/2000/svg" width="31.187" height="31.187" viewBox="0 0 31.187 31.187">
  <g id="fast_service-chronometer" data-name="fast service-chronometer" transform="translate(-293 -115)">
    <g id="Group_20945" data-name="Group 20945" transform="translate(307.131 123.771)">
      <path id="Path_20376" data-name="Path 20376" d="M325.9,151.517a9.192,9.192,0,0,1-3.6-.727.487.487,0,1,1,.379-.9,8.285,8.285,0,1,0,3.221-15.918.487.487,0,0,1,0-.975,9.259,9.259,0,1,1,0,18.517Z" transform="translate(-322 -133)" fill="#3e3e3e"/>
    </g>
    <g id="Group_20948" data-name="Group 20948" transform="translate(304.695 131.081)">
      <g id="Group_20946" data-name="Group 20946" transform="translate(0 2.924)">
        <path id="Path_20377" data-name="Path 20377" d="M317.487,159.848a.487.487,0,0,1-.362-.813l4.386-4.873a.487.487,0,1,1,.724.652l-4.386,4.873A.486.486,0,0,1,317.487,159.848Z" transform="translate(-317 -154)" fill="#3e3e3e"/>
      </g>
      <g id="Group_20947" data-name="Group 20947" transform="translate(4.386)">
        <path id="Path_20378" data-name="Path 20378" d="M327.949,151.9a1.949,1.949,0,1,1,1.949-1.949A1.951,1.951,0,0,1,327.949,151.9Zm0-2.924a.975.975,0,1,0,.975.975A.976.976,0,0,0,327.949,148.975Z" transform="translate(-326 -148)" fill="#3e3e3e"/>
      </g>
    </g>
    <g id="Group_20954" data-name="Group 20954" transform="translate(293 119.873)">
      <g id="Group_20949" data-name="Group 20949">
        <path id="Path_20379" data-name="Path 20379" d="M303.233,125.975h-9.746a.487.487,0,1,1,0-.975h9.746a.487.487,0,0,1,0,.975Z" transform="translate(-293 -125)" fill="#3e3e3e"/>
      </g>
      <g id="Group_20953" data-name="Group 20953" transform="translate(2.924 3.898)">
        <g id="Group_20952" data-name="Group 20952">
          <g id="Group_20950" data-name="Group 20950">
            <path id="Path_20380" data-name="Path 20380" d="M303.386,133.975h-3.9a.487.487,0,0,1,0-.975h3.9a.487.487,0,1,1,0,.975Z" transform="translate(-299 -133)" fill="#3e3e3e"/>
          </g>
          <g id="Group_20951" data-name="Group 20951" transform="translate(7.797)">
            <path id="Path_20381" data-name="Path 20381" d="M318.411,133.975h-2.924a.487.487,0,0,1,0-.975h2.924a.487.487,0,1,1,0,.975Z" transform="translate(-315 -133)" fill="#3e3e3e"/>
          </g>
        </g>
      </g>
    </g>
    <g id="Group_20956" data-name="Group 20956" transform="translate(307.619 115)">
      <g id="Group_20955" data-name="Group 20955">
        <path id="Path_20382" data-name="Path 20382" d="M329.335,118.411H326.9v-.975h1.949v-.975a.488.488,0,0,0-.487-.487h-3.9a.488.488,0,0,0-.487.487v.975h.487v.975h-.975a.487.487,0,0,1-.487-.487v-1.462A1.464,1.464,0,0,1,324.462,115h3.9a1.464,1.464,0,0,1,1.462,1.462v1.462A.487.487,0,0,1,329.335,118.411Z" transform="translate(-323 -115)" fill="#3e3e3e"/>
      </g>
    </g>
    <g id="Group_20957" data-name="Group 20957" transform="translate(297.873 119.873)">
      <path id="Path_20383" data-name="Path 20383" d="M316.157,151.314a13.16,13.16,0,0,1-11.4-19.736.487.487,0,1,1,.844.488,12.184,12.184,0,1,0,10.553-6.092h-3.9a.487.487,0,0,1,0-.975h3.9a13.157,13.157,0,1,1,0,26.314Z" transform="translate(-303 -125)" fill="#3e3e3e"/>
    </g>
    <g id="Group_20958" data-name="Group 20958" transform="translate(319.475 120.36)">
      <path id="Path_20384" data-name="Path 20384" d="M350.094,129.028a.487.487,0,0,1-.362-.16,14.737,14.737,0,0,0-2.2-1.989.487.487,0,1,1,.577-.785,15.723,15.723,0,0,1,2.348,2.121.487.487,0,0,1-.362.814Z" transform="translate(-347.332 -125.999)" fill="#3e3e3e"/>
    </g>
  </g>
</svg>
