<svg xmlns="http://www.w3.org/2000/svg" width="25.986" height="25.539" viewBox="0 0 25.986 25.539">
  <g id="route" transform="translate(-119.594 -170.065)">
    <g id="Group_20943" data-name="Group 20943" transform="translate(134.883 181.01)">
      <path id="Path_20371" data-name="Path 20371" d="M146.851,184.606a5.353,5.353,0,0,0-8.407,6.487l4.281,6.359a.411.411,0,0,0,.338.18.394.394,0,0,0,.336-.18l4.293-6.382A5.359,5.359,0,0,0,146.851,184.606Zm.153,6.036-3.94,5.858-3.931-5.837a4.541,4.541,0,1,1,7.871-.021Z" transform="translate(-137.715 -183.038)" fill="#3e3e3e"/>
      <path id="Path_20372" data-name="Path 20372" d="M141.524,186.856a2.837,2.837,0,1,0,4.011,0A2.9,2.9,0,0,0,141.524,186.856Zm3.442,3.441a2.083,2.083,0,0,1-2.872,0,2.027,2.027,0,1,1,2.872,0Z" transform="translate(-138.18 -183.509)" fill="#3e3e3e"/>
    </g>
    <g id="Group_20944" data-name="Group 20944" transform="translate(119.601 170.065)">
      <path id="Path_20373" data-name="Path 20373" d="M127.244,171.377a4.478,4.478,0,0,0-7.03,5.432l3.525,5.24a.413.413,0,0,0,.337.176.4.4,0,0,0,.335-.176l3.54-5.264A4.482,4.482,0,0,0,127.244,171.377Zm.02,4.979-3.188,4.739-3.175-4.716a3.667,3.667,0,0,1,.581-4.428,3.667,3.667,0,0,1,5.781,4.405Z" transform="translate(-119.603 -170.065)" fill="#3e3e3e"/>
      <path id="Path_20374" data-name="Path 20374" d="M122.735,173.207a2.432,2.432,0,1,0,3.441,0A2.49,2.49,0,0,0,122.735,173.207Zm2.868,2.867a1.664,1.664,0,0,1-2.295,0,1.622,1.622,0,1,1,2.295,0Z" transform="translate(-119.981 -170.448)" fill="#3e3e3e"/>
    </g>
    <path id="Path_20375" data-name="Path 20375" d="M137.88,196.926H124.028a3.623,3.623,0,1,1,.066-7.246h6.335a2.99,2.99,0,1,0,0-5.98h-4.31a.4.4,0,0,0,0,.809h4.31a2.18,2.18,0,1,1,0,4.36h-6.4a4.433,4.433,0,1,0,0,8.866H137.88a.4.4,0,0,0,0-.809Z" transform="translate(0 -2.131)" fill="#3e3e3e"/>
  </g>
</svg>
