<svg xmlns="http://www.w3.org/2000/svg" width="28.187" height="28.187" viewBox="0 0 28.187 28.187">
  <g id="video_chat" data-name="video chat" transform="translate(-2942 -266)">
    <g id="Group_20925" data-name="Group 20925" transform="translate(2955.212 266)">
      <g id="Group_20924" data-name="Group 20924">
        <path id="Path_20356" data-name="Path 20356" d="M3065.523,280.093a.44.44,0,0,1-.44-.44V276.57h-.441a.44.44,0,1,1,0-.881h.881a.44.44,0,0,1,.44.44v2.543l3.231-2.872a.44.44,0,0,1,.292-.111h6.166a.441.441,0,0,0,.44-.44v-7.927a.441.441,0,0,0-.44-.44h-12.332a.441.441,0,0,0-.44.44v6.606a.44.44,0,0,1-.881,0v-6.606a1.323,1.323,0,0,1,1.321-1.321h12.332a1.323,1.323,0,0,1,1.321,1.321v7.927a1.323,1.323,0,0,1-1.321,1.321h-6l-3.839,3.412A.441.441,0,0,1,3065.523,280.093Z" transform="translate(-3062 -266)" fill="#3e3e3e"/>
      </g>
    </g>
    <g id="Group_20929" data-name="Group 20929" transform="translate(2942 272.166)">
      <g id="Group_20926" data-name="Group 20926" transform="translate(25.984 6.606)">
        <path id="Path_20357" data-name="Path 20357" d="M3178.44,393.01a.44.44,0,0,1-.44-.44V382.44a.44.44,0,0,1,.881,0v10.13A.44.44,0,0,1,3178.44,393.01Z" transform="translate(-3178 -382)" fill="#3e3e3e"/>
      </g>
      <g id="Group_20927" data-name="Group 20927" transform="translate(1.321)">
        <path id="Path_20358" data-name="Path 20358" d="M2954.441,339.617a.441.441,0,0,1-.441-.44V324.2a2.2,2.2,0,0,1,2.2-2.2h10.129a.44.44,0,1,1,0,.881H2956.2a1.323,1.323,0,0,0-1.321,1.321v14.974A.441.441,0,0,1,2954.441,339.617Z" transform="translate(-2954 -322)" fill="#3e3e3e"/>
      </g>
      <g id="Group_20928" data-name="Group 20928" transform="translate(0 18.497)">
        <path id="Path_20359" data-name="Path 20359" d="M2967.1,493.523h-22.021A3.086,3.086,0,0,1,2942,490.44a.441.441,0,0,1,.44-.44h10.57a.44.44,0,0,1,.44.44v.44h5.285v-.44a.44.44,0,0,1,.44-.44h10.57a.44.44,0,0,1,.44.44A3.086,3.086,0,0,1,2967.1,493.523Zm-24.179-2.643a2.206,2.206,0,0,0,2.158,1.762H2967.1a2.206,2.206,0,0,0,2.158-1.762h-9.645v.44a.441.441,0,0,1-.44.44h-6.166a.44.44,0,0,1-.44-.44v-.44Z" transform="translate(-2942 -490)" fill="#3e3e3e"/>
      </g>
    </g>
    <g id="_Grupo_" data-name="&lt;Grupo&gt;" transform="translate(2945.964 276.13)">
      <g id="Group_20930" data-name="Group 20930" transform="translate(0 7.927)">
        <path id="Path_20360" data-name="Path 20360" d="M2991.652,434.844a.44.44,0,0,1-.439-.413,2.91,2.91,0,0,0-1.519-2.276l-2.46-1.23a6.25,6.25,0,0,1-4.376,0l-2.459,1.23a2.908,2.908,0,0,0-1.519,2.278.44.44,0,0,1-.879-.057,3.8,3.8,0,0,1,2-3.009l2.643-1.321a.441.441,0,0,1,.394,0,5.3,5.3,0,0,0,4.012,0,.443.443,0,0,1,.393,0l2.643,1.321a3.8,3.8,0,0,1,2,3.009.44.44,0,0,1-.412.467Z" transform="translate(-2978 -430)" fill="#3e3e3e"/>
      </g>
      <g id="Group_20931" data-name="Group 20931" transform="translate(3.772)">
        <path id="Path_20361" data-name="Path 20361" d="M3016.856,365.047a.441.441,0,0,1-.245-.807,2.254,2.254,0,0,0,1.235-2.165q.014-.12.03-.25a3.135,3.135,0,0,0-.176-1.813,2.12,2.12,0,0,0-1.231-.978,3.005,3.005,0,0,0-1.869,0,2.119,2.119,0,0,0-1.231.978,3.134,3.134,0,0,0-.176,1.813l.03.25a2.253,2.253,0,0,0,1.235,2.165.441.441,0,0,1-.489.733,3.082,3.082,0,0,1-1.621-2.8q-.014-.118-.029-.246a3.908,3.908,0,0,1,.271-2.33,2.993,2.993,0,0,1,1.729-1.4,3.828,3.828,0,0,1,2.433,0,2.994,2.994,0,0,1,1.729,1.4,3.91,3.91,0,0,1,.271,2.33q-.016.128-.03.246a3.082,3.082,0,0,1-1.621,2.8A.438.438,0,0,1,3016.856,365.047Z" transform="translate(-3012.26 -358)" fill="#3e3e3e"/>
      </g>
    </g>
  </g>
</svg>
