<svg id="Сгруппировать_544" data-name="Сгруппировать 544" xmlns="http://www.w3.org/2000/svg" xmlns:xlink="http://www.w3.org/1999/xlink" width="224" height="234" viewBox="0 0 448.048 468.53">
  <defs>
    <clipPath id="clip-path">
      <path id="Контур_276" data-name="Контур 276" d="M0,132.831H448.048V-335.7H0Z" transform="translate(0 335.699)" fill="none"/>
    </clipPath>
  </defs>
  <g id="Сгруппировать_531" data-name="Сгруппировать 531" transform="translate(109.383 12.827)">
    <path id="Контур_273" data-name="Контур 273" d="M0,51.957H218.205L109.1-131.31Z" transform="translate(0 131.31)" fill="none" stroke="#2b2e34" stroke-linecap="round" stroke-linejoin="round" stroke-width="3"/>
  </g>
  <g id="Сгруппировать_534" data-name="Сгруппировать 534" clip-path="url(#clip-path)">
    <g id="Сгруппировать_532" data-name="Сгруппировать 532" transform="translate(227.257 87.781)">
      <path id="Контур_274" data-name="Контур 274" d="M0,0,36.683,32.7,73.364,0l36.683,32.7L146.73,0l36.681,32.7L220.094,0" fill="none" stroke="#ff6634" stroke-linecap="round" stroke-linejoin="round" stroke-width="3"/>
    </g>
    <g id="Сгруппировать_533" data-name="Сгруппировать 533" transform="translate(0.014 49.052)">
      <path id="Контур_275" data-name="Контур 275" d="M66.329,118.823c52.789-89.409,53.06-204.909-8.867-296.717A277.4,277.4,0,0,0-167.632-300.3" transform="translate(167.632 300.299)" fill="none" stroke="#ff6634" stroke-width="3"/>
    </g>
  </g>
  <g id="Сгруппировать_535" data-name="Сгруппировать 535" transform="translate(199.4 229.74)">
    <path id="Контур_277" data-name="Контур 277" d="M0,45.108,170.273-114" transform="translate(0 114)" fill="none" stroke="#2b2e34" stroke-linecap="round" stroke-linejoin="round" stroke-width="3"/>
  </g>
  <g id="Сгруппировать_536" data-name="Сгруппировать 536" transform="translate(208.082 182.305)">
    <path id="Контур_278" data-name="Контур 278" d="M0,45.108,170.273-114" transform="translate(0 114)" fill="none" stroke="#ff6634" stroke-width="3"/>
  </g>
  <g id="Сгруппировать_538" data-name="Сгруппировать 538" clip-path="url(#clip-path)">
    <g id="Сгруппировать_537" data-name="Сгруппировать 537" transform="translate(337.304 0.698)">
      <path id="Контур_279" data-name="Контур 279" d="M0,0V58.07" fill="none" stroke="#2b2e34" stroke-linecap="round" stroke-linejoin="round" stroke-width="3"/>
    </g>
  </g>
  <g id="Сгруппировать_539" data-name="Сгруппировать 539" transform="translate(308.269 29.733)">
    <path id="Контур_281" data-name="Контур 281" d="M0,0H58.07" fill="none" stroke="#2b2e34" stroke-linecap="round" stroke-linejoin="round" stroke-width="3"/>
  </g>
</svg>
