<?xml version="1.0" encoding="utf-8"?>
<!-- Generator: Adobe Illustrator 24.0.1, SVG Export Plug-In . SVG Version: 6.00 Build 0)  -->
<svg version="1.1" id="Слой_1" xmlns="http://www.w3.org/2000/svg" xmlns:xlink="http://www.w3.org/1999/xlink" x="0px" y="0px"
	 viewBox="0 0 120 120" style="enable-background:new 0 0 120 120;" xml:space="preserve">
<style type="text/css">
	.st0{fill:#FFFFFF;}
	.st1{fill:#FF6633;}
	.st2{fill:#3D3D3D;}
</style>
<rect class="st0" width="120" height="120"/>
<g>
	<path class="st1" d="M90.4,19.7c0.2-0.2,0.2-0.6,0-0.8c-0.1,0-0.1-0.1-0.2-0.1c-3.9-1.6-23.7-11.2-30.5,2.7
		c-4.1,8.4,5.5,14.6,13.7,6.3C79.8,21.6,87.9,22.5,90.4,19.7"/>
</g>
<polygon class="st2" points="91.3,42.3 67,65.2 94.1,104 72.6,104 54.8,76.6 47.5,83.1 47.5,104 30.1,104 30.1,18.9 47.5,18.9 
	47.5,64.4 70.3,42.3 "/>
</svg>
