<?xml version="1.0" encoding="utf-8"?>
<!-- Generator: Adobe Illustrator 24.0.1, SVG Export Plug-In . SVG Version: 6.00 Build 0)  -->
<svg version="1.1" id="Слой_1" xmlns="http://www.w3.org/2000/svg" xmlns:xlink="http://www.w3.org/1999/xlink" x="0px" y="0px"
	 viewBox="0 0 48 48" style="enable-background:new 0 0 48 48;" xml:space="preserve">
<style type="text/css">
	.st0{fill:#FFFFFF;}
	.st1{fill:#FF6633;}
	.st2{fill:#3D3D3D;}
</style>
<rect class="st0" width="48" height="48"/>
<path class="st1" d="M36.6,8.1c0.1-0.1,0.1-0.2,0-0.3c0,0,0,0-0.1,0C35,7.1,27.1,3.3,24.3,8.9c-1.7,3.4,2.2,5.9,5.5,2.5
	C32.4,8.9,35.6,9.2,36.6,8.1"/>
<polygon class="st2" points="37,17.2 27.2,26.4 38.1,42 29.5,42 22.3,31 19.4,33.6 19.4,42 12.4,42 12.4,7.8 19.4,7.8 19.4,26.1 
	28.6,17.2 "/>
</svg>
