<?xml version="1.0" encoding="utf-8"?>
<!-- Generator: Adobe Illustrator 24.0.1, SVG Export Plug-In . SVG Version: 6.00 Build 0)  -->
<svg version="1.1" id="Слой_1" xmlns="http://www.w3.org/2000/svg" xmlns:xlink="http://www.w3.org/1999/xlink" x="0px" y="0px"
	 viewBox="0 0 32 32" style="enable-background:new 0 0 32 32;" xml:space="preserve">
<style type="text/css">
	.st0{fill:#FFFFFF;}
	.st1{fill:#FF6633;}
	.st2{fill:#3D3D3D;}
</style>
<rect class="st0" width="32" height="32"/>
<g>
	<g>
		<path class="st1" d="M24.8,4.1c0.1-0.1,0.1-0.2,0-0.2c0,0,0,0-0.1,0c-1.1-0.5-6.9-3.3-8.9,0.8c-1.2,2.5,1.6,4.3,4,1.9
			C21.7,4.7,24,4.9,24.8,4.1"/>
	</g>
	<polygon class="st2" points="25,10.7 17.9,17.4 25.9,28.8 19.6,28.8 14.3,20.8 12.2,22.7 12.2,28.8 7.1,28.8 7.1,3.9 12.2,3.9 
		12.2,17.2 18.9,10.7 	"/>
</g>
</svg>
