<?xml version="1.0" encoding="utf-8"?>
<!-- Generator: Adobe Illustrator 24.0.1, SVG Export Plug-In . SVG Version: 6.00 Build 0)  -->
<svg version="1.1" id="Слой_1" xmlns="http://www.w3.org/2000/svg" xmlns:xlink="http://www.w3.org/1999/xlink" x="0px" y="0px"
	 viewBox="0 0 17 17" style="enable-background:new 0 0 17 17;" xml:space="preserve">
<style type="text/css">
	.st0{fill:#FFFFFF;}
	.st1{fill:#FF6633;}
	.st2{fill:#3D3D3D;}
</style>
<rect class="st0" width="17" height="17"/>
<g>
	<g>
		<path class="st1" d="M12.9,2.4c0,0,0-0.1,0-0.1c0,0,0,0,0,0C12.2,2,9.2,0.6,8.1,2.7C7.5,4,9,5,10.3,3.7
			C11.2,2.7,12.5,2.8,12.9,2.4"/>
	</g>
	<polygon class="st2" points="13,5.9 9.2,9.4 13.4,15.4 10.1,15.4 7.4,11.2 6.2,12.2 6.2,15.4 3.6,15.4 3.6,2.3 6.2,2.3 6.2,9.3 
		9.8,5.9 	"/>
</g>
</svg>
