<?xml version="1.0" encoding="utf-8"?>
<!-- Generator: Adobe Illustrator 24.0.1, SVG Export Plug-In . SVG Version: 6.00 Build 0)  -->
<svg version="1.1" id="Слой_1" xmlns="http://www.w3.org/2000/svg" xmlns:xlink="http://www.w3.org/1999/xlink" x="0px" y="0px"
	 viewBox="0 0 180 180" style="enable-background:new 0 0 180 180;" xml:space="preserve">
<style type="text/css">
	.st0{fill:#FFFFFF;}
	.st1{fill:#FF6633;}
	.st2{fill:#3D3D3D;}
</style>
<rect class="st0" width="180" height="180"/>
<g>
	<path class="st1" d="M135.5,28.7c0.3-0.3,0.3-0.8,0-1.2c-0.1-0.1-0.2-0.1-0.3-0.2c-5.8-2.4-35.7-16.8-45.9,4.1
		C83.1,44.2,97.6,53.5,110,41C119.5,31.6,131.7,32.8,135.5,28.7"/>
</g>
<polygon class="st2" points="136.7,62.7 100.1,97.1 141.1,155.7 108.6,155.7 81.8,114.4 70.9,124.1 70.9,155.7 44.6,155.7 
	44.6,27.4 70.9,27.4 70.9,96.1 105.2,62.7 "/>
</svg>
