<?xml version="1.0" encoding="utf-8"?>
<!-- Generator: Adobe Illustrator 24.0.1, SVG Export Plug-In . SVG Version: 6.00 Build 0)  -->
<svg version="1.1" id="Слой_1" xmlns="http://www.w3.org/2000/svg" xmlns:xlink="http://www.w3.org/1999/xlink" x="0px" y="0px"
	 viewBox="0 0 72 72" style="enable-background:new 0 0 72 72;" xml:space="preserve">
<style type="text/css">
	.st0{fill:#FFFFFF;}
	.st1{fill:#FF6633;}
	.st2{fill:#3D3D3D;}
</style>
<rect class="st0" width="72" height="72"/>
<g>
	<path class="st1" d="M53.7,11.5c0.1-0.1,0.1-0.3,0-0.5c0,0-0.1-0.1-0.1-0.1c-2.3-1-14.3-6.7-18.4,1.7c-2.5,5.1,3.3,8.8,8.3,3.8
		C47.3,12.6,52.2,13.1,53.7,11.5"/>
</g>
<polygon class="st2" points="54.2,25.1 39.5,38.9 55.9,62.3 42.9,62.3 32.2,45.8 27.8,49.7 27.8,62.3 17.3,62.3 17.3,11 27.8,11 
	27.8,38.4 41.6,25.1 "/>
</svg>
